<svg version="1.1" viewBox="0.0 0.0 228.13385826771653 335.36482939632543" fill="none" stroke="none" stroke-linecap="square" stroke-miterlimit="10" xmlns:xlink="http://www.w3.org/1999/xlink" xmlns="http://www.w3.org/2000/svg"><clipPath id="p.0"><path d="m0 0l228.13387 0l0 335.36484l-228.13387 0l0 -335.36484z" clip-rule="nonzero"/></clipPath><g clip-path="url(#p.0)"><path fill="#000000" fill-opacity="0.0" d="m0 0l228.13387 0l0 335.36484l-228.13387 0z" fill-rule="evenodd"/><path fill="#cfe2f3" d="m19.425198 37.51181l32.31496 0l0 32.314964l-32.31496 0z" fill-rule="evenodd"/><path stroke="#000000" stroke-width="1.0" stroke-linejoin="round" stroke-linecap="butt" d="m19.425198 37.51181l32.31496 0l0 32.314964l-32.31496 0z" fill-rule="evenodd"/><path fill="#cfe2f3" d="m51.425198 37.51181l32.31496 0l0 32.314964l-32.31496 0z" fill-rule="evenodd"/><path stroke="#000000" stroke-width="1.0" stroke-linejoin="round" stroke-linecap="butt" d="m51.425198 37.51181l32.31496 0l0 32.314964l-32.31496 0z" fill-rule="evenodd"/><path fill="#cfe2f3" d="m83.42519 37.51181l32.314964 0l0 32.314964l-32.314964 0z" fill-rule="evenodd"/><path stroke="#000000" stroke-width="1.0" stroke-linejoin="round" stroke-linecap="butt" d="m83.42519 37.51181l32.314964 0l0 32.314964l-32.314964 0z" fill-rule="evenodd"/><path fill="#cfe2f3" d="m115.42519 37.51181l32.314964 0l0 32.314964l-32.314964 0z" fill-rule="evenodd"/><path stroke="#000000" stroke-width="1.0" stroke-linejoin="round" stroke-linecap="butt" d="m115.42519 37.51181l32.314964 0l0 32.314964l-32.314964 0z" fill-rule="evenodd"/><path fill="#cfe2f3" d="m147.4252 37.51181l32.314957 0l0 32.314964l-32.314957 0z" fill-rule="evenodd"/><path stroke="#000000" stroke-width="1.0" stroke-linejoin="round" stroke-linecap="butt" d="m147.4252 37.51181l32.314957 0l0 32.314964l-32.314957 0z" fill-rule="evenodd"/><path fill="#cfe2f3" d="m179.4252 37.51181l32.314957 0l0 32.314964l-32.314957 0z" fill-rule="evenodd"/><path stroke="#000000" stroke-width="1.0" stroke-linejoin="round" stroke-linecap="butt" d="m179.4252 37.51181l32.314957 0l0 32.314964l-32.314957 0z" fill-rule="evenodd"/><path fill="#cfe2f3" d="m19.425198 125.51181l32.31496 0l0 32.314957l-32.31496 0z" fill-rule="evenodd"/><path stroke="#000000" stroke-width="1.0" stroke-linejoin="round" stroke-linecap="butt" d="m19.425198 125.51181l32.31496 0l0 32.314957l-32.31496 0z" fill-rule="evenodd"/><path fill="#cfe2f3" d="m51.425198 125.51181l32.31496 0l0 32.314957l-32.31496 0z" fill-rule="evenodd"/><path stroke="#000000" stroke-width="1.0" stroke-linejoin="round" stroke-linecap="butt" d="m51.425198 125.51181l32.31496 0l0 32.314957l-32.31496 0z" fill-rule="evenodd"/><path fill="#cfe2f3" d="m83.42519 125.51181l32.314964 0l0 32.314957l-32.314964 0z" fill-rule="evenodd"/><path stroke="#000000" stroke-width="1.0" stroke-linejoin="round" stroke-linecap="butt" d="m83.42519 125.51181l32.314964 0l0 32.314957l-32.314964 0z" fill-rule="evenodd"/><path fill="#cfe2f3" d="m115.42519 125.51181l32.314964 0l0 32.314957l-32.314964 0z" fill-rule="evenodd"/><path stroke="#000000" stroke-width="1.0" stroke-linejoin="round" stroke-linecap="butt" d="m115.42519 125.51181l32.314964 0l0 32.314957l-32.314964 0z" fill-rule="evenodd"/><path fill="#cfe2f3" d="m147.4252 125.51181l32.314957 0l0 32.314957l-32.314957 0z" fill-rule="evenodd"/><path stroke="#000000" stroke-width="1.0" stroke-linejoin="round" stroke-linecap="butt" d="m147.4252 125.51181l32.314957 0l0 32.314957l-32.314957 0z" fill-rule="evenodd"/><path fill="#cfe2f3" d="m179.4252 125.51181l32.314957 0l0 32.314957l-32.314957 0z" fill-rule="evenodd"/><path stroke="#000000" stroke-width="1.0" stroke-linejoin="round" stroke-linecap="butt" d="m179.4252 125.51181l32.314957 0l0 32.314957l-32.314957 0z" fill-rule="evenodd"/><path fill="#cfe2f3" d="m19.425198 157.51181l32.31496 0l0 32.314957l-32.31496 0z" fill-rule="evenodd"/><path stroke="#000000" stroke-width="1.0" stroke-linejoin="round" stroke-linecap="butt" d="m19.425198 157.51181l32.31496 0l0 32.314957l-32.31496 0z" fill-rule="evenodd"/><path fill="#cfe2f3" d="m51.425198 157.51181l32.31496 0l0 32.314957l-32.31496 0z" fill-rule="evenodd"/><path stroke="#000000" stroke-width="1.0" stroke-linejoin="round" stroke-linecap="butt" d="m51.425198 157.51181l32.31496 0l0 32.314957l-32.31496 0z" fill-rule="evenodd"/><path fill="#cfe2f3" d="m83.42519 157.51181l32.314964 0l0 32.314957l-32.314964 0z" fill-rule="evenodd"/><path stroke="#000000" stroke-width="1.0" stroke-linejoin="round" stroke-linecap="butt" d="m83.42519 157.51181l32.314964 0l0 32.314957l-32.314964 0z" fill-rule="evenodd"/><path fill="#cfe2f3" d="m115.42519 157.51181l32.314964 0l0 32.314957l-32.314964 0z" fill-rule="evenodd"/><path stroke="#000000" stroke-width="1.0" stroke-linejoin="round" stroke-linecap="butt" d="m115.42519 157.51181l32.314964 0l0 32.314957l-32.314964 0z" fill-rule="evenodd"/><path fill="#cfe2f3" d="m147.4252 157.51181l32.314957 0l0 32.314957l-32.314957 0z" fill-rule="evenodd"/><path stroke="#000000" stroke-width="1.0" stroke-linejoin="round" stroke-linecap="butt" d="m147.4252 157.51181l32.314957 0l0 32.314957l-32.314957 0z" fill-rule="evenodd"/><path fill="#cfe2f3" d="m179.4252 157.51181l32.314957 0l0 32.314957l-32.314957 0z" fill-rule="evenodd"/><path stroke="#000000" stroke-width="1.0" stroke-linejoin="round" stroke-linecap="butt" d="m179.4252 157.51181l32.314957 0l0 32.314957l-32.314957 0z" fill-rule="evenodd"/><path fill="#cfe2f3" d="m19.425198 189.51181l32.31496 0l0 32.314957l-32.31496 0z" fill-rule="evenodd"/><path stroke="#000000" stroke-width="1.0" stroke-linejoin="round" stroke-linecap="butt" d="m19.425198 189.51181l32.31496 0l0 32.314957l-32.31496 0z" fill-rule="evenodd"/><path fill="#cfe2f3" d="m51.425198 189.51181l32.31496 0l0 32.314957l-32.31496 0z" fill-rule="evenodd"/><path stroke="#000000" stroke-width="1.0" stroke-linejoin="round" stroke-linecap="butt" d="m51.425198 189.51181l32.31496 0l0 32.314957l-32.31496 0z" fill-rule="evenodd"/><path fill="#cfe2f3" d="m83.42519 189.51181l32.314964 0l0 32.314957l-32.314964 0z" fill-rule="evenodd"/><path stroke="#000000" stroke-width="1.0" stroke-linejoin="round" stroke-linecap="butt" d="m83.42519 189.51181l32.314964 0l0 32.314957l-32.314964 0z" fill-rule="evenodd"/><path fill="#cfe2f3" d="m115.42519 189.51181l32.314964 0l0 32.314957l-32.314964 0z" fill-rule="evenodd"/><path stroke="#000000" stroke-width="1.0" stroke-linejoin="round" stroke-linecap="butt" d="m115.42519 189.51181l32.314964 0l0 32.314957l-32.314964 0z" fill-rule="evenodd"/><path fill="#cfe2f3" d="m147.4252 189.51181l32.314957 0l0 32.314957l-32.314957 0z" fill-rule="evenodd"/><path stroke="#000000" stroke-width="1.0" stroke-linejoin="round" stroke-linecap="butt" d="m147.4252 189.51181l32.314957 0l0 32.314957l-32.314957 0z" fill-rule="evenodd"/><path fill="#cfe2f3" d="m179.4252 189.51181l32.314957 0l0 32.314957l-32.314957 0z" fill-rule="evenodd"/><path stroke="#000000" stroke-width="1.0" stroke-linejoin="round" stroke-linecap="butt" d="m179.4252 189.51181l32.314957 0l0 32.314957l-32.314957 0z" fill-rule="evenodd"/><path fill="#cfe2f3" d="m19.425198 221.51181l32.31496 0l0 32.314957l-32.31496 0z" fill-rule="evenodd"/><path stroke="#000000" stroke-width="1.0" stroke-linejoin="round" stroke-linecap="butt" d="m19.425198 221.51181l32.31496 0l0 32.314957l-32.31496 0z" fill-rule="evenodd"/><path fill="#cfe2f3" d="m51.425198 221.51181l32.31496 0l0 32.314957l-32.31496 0z" fill-rule="evenodd"/><path stroke="#000000" stroke-width="1.0" stroke-linejoin="round" stroke-linecap="butt" d="m51.425198 221.51181l32.31496 0l0 32.314957l-32.31496 0z" fill-rule="evenodd"/><path fill="#cfe2f3" d="m83.42519 221.51181l32.314964 0l0 32.314957l-32.314964 0z" fill-rule="evenodd"/><path stroke="#000000" stroke-width="1.0" stroke-linejoin="round" stroke-linecap="butt" d="m83.42519 221.51181l32.314964 0l0 32.314957l-32.314964 0z" fill-rule="evenodd"/><path fill="#cfe2f3" d="m115.42519 221.51181l32.314964 0l0 32.314957l-32.314964 0z" fill-rule="evenodd"/><path stroke="#000000" stroke-width="1.0" stroke-linejoin="round" stroke-linecap="butt" d="m115.42519 221.51181l32.314964 0l0 32.314957l-32.314964 0z" fill-rule="evenodd"/><path fill="#cfe2f3" d="m147.4252 221.51181l32.314957 0l0 32.314957l-32.314957 0z" fill-rule="evenodd"/><path stroke="#000000" stroke-width="1.0" stroke-linejoin="round" stroke-linecap="butt" d="m147.4252 221.51181l32.314957 0l0 32.314957l-32.314957 0z" fill-rule="evenodd"/><path fill="#cfe2f3" d="m179.4252 221.51181l32.314957 0l0 32.314957l-32.314957 0z" fill-rule="evenodd"/><path stroke="#000000" stroke-width="1.0" stroke-linejoin="round" stroke-linecap="butt" d="m179.4252 221.51181l32.314957 0l0 32.314957l-32.314957 0z" fill-rule="evenodd"/><path fill="#cfe2f3" d="m19.425198 253.51181l32.31496 0l0 32.314972l-32.31496 0z" fill-rule="evenodd"/><path stroke="#000000" stroke-width="1.0" stroke-linejoin="round" stroke-linecap="butt" d="m19.425198 253.51181l32.31496 0l0 32.314972l-32.31496 0z" fill-rule="evenodd"/><path fill="#cfe2f3" d="m51.425198 253.51181l32.31496 0l0 32.314972l-32.31496 0z" fill-rule="evenodd"/><path stroke="#000000" stroke-width="1.0" stroke-linejoin="round" stroke-linecap="butt" d="m51.425198 253.51181l32.31496 0l0 32.314972l-32.31496 0z" fill-rule="evenodd"/><path fill="#cfe2f3" d="m83.42519 253.51181l32.314964 0l0 32.314972l-32.314964 0z" fill-rule="evenodd"/><path stroke="#000000" stroke-width="1.0" stroke-linejoin="round" stroke-linecap="butt" d="m83.42519 253.51181l32.314964 0l0 32.314972l-32.314964 0z" fill-rule="evenodd"/><path fill="#cfe2f3" d="m115.42519 253.51181l32.314964 0l0 32.314972l-32.314964 0z" fill-rule="evenodd"/><path stroke="#000000" stroke-width="1.0" stroke-linejoin="round" stroke-linecap="butt" d="m115.42519 253.51181l32.314964 0l0 32.314972l-32.314964 0z" fill-rule="evenodd"/><path fill="#cfe2f3" d="m147.4252 253.51181l32.314957 0l0 32.314972l-32.314957 0z" fill-rule="evenodd"/><path stroke="#000000" stroke-width="1.0" stroke-linejoin="round" stroke-linecap="butt" d="m147.4252 253.51181l32.314957 0l0 32.314972l-32.314957 0z" fill-rule="evenodd"/><path fill="#cfe2f3" d="m179.4252 253.51181l32.314957 0l0 32.314972l-32.314957 0z" fill-rule="evenodd"/><path stroke="#000000" stroke-width="1.0" stroke-linejoin="round" stroke-linecap="butt" d="m179.4252 253.51181l32.314957 0l0 32.314972l-32.314957 0z" fill-rule="evenodd"/><path fill="#cfe2f3" d="m19.425198 285.5118l32.31496 0l0 32.314972l-32.31496 0z" fill-rule="evenodd"/><path stroke="#000000" stroke-width="1.0" stroke-linejoin="round" stroke-linecap="butt" d="m19.425198 285.5118l32.31496 0l0 32.314972l-32.31496 0z" fill-rule="evenodd"/><path fill="#cfe2f3" d="m51.425198 285.5118l32.31496 0l0 32.314972l-32.31496 0z" fill-rule="evenodd"/><path stroke="#000000" stroke-width="1.0" stroke-linejoin="round" stroke-linecap="butt" d="m51.425198 285.5118l32.31496 0l0 32.314972l-32.31496 0z" fill-rule="evenodd"/><path fill="#cfe2f3" d="m83.42519 285.5118l32.314964 0l0 32.314972l-32.314964 0z" fill-rule="evenodd"/><path stroke="#000000" stroke-width="1.0" stroke-linejoin="round" stroke-linecap="butt" d="m83.42519 285.5118l32.314964 0l0 32.314972l-32.314964 0z" fill-rule="evenodd"/><path fill="#cfe2f3" d="m115.42519 285.5118l32.314964 0l0 32.314972l-32.314964 0z" fill-rule="evenodd"/><path stroke="#000000" stroke-width="1.0" stroke-linejoin="round" stroke-linecap="butt" d="m115.42519 285.5118l32.314964 0l0 32.314972l-32.314964 0z" fill-rule="evenodd"/><path fill="#cfe2f3" d="m147.4252 285.5118l32.314957 0l0 32.314972l-32.314957 0z" fill-rule="evenodd"/><path stroke="#000000" stroke-width="1.0" stroke-linejoin="round" stroke-linecap="butt" d="m147.4252 285.5118l32.314957 0l0 32.314972l-32.314957 0z" fill-rule="evenodd"/><path fill="#cfe2f3" d="m179.4252 285.5118l32.314957 0l0 32.314972l-32.314957 0z" fill-rule="evenodd"/><path stroke="#000000" stroke-width="1.0" stroke-linejoin="round" stroke-linecap="butt" d="m179.4252 285.5118l32.314957 0l0 32.314972l-32.314957 0z" fill-rule="evenodd"/><path fill="#000000" fill-opacity="0.0" d="m10.385827 -2.4540682l600.189 0l0 70.01575l-600.189 0z" fill-rule="evenodd"/><path fill="#000000" d="m26.338951 24.465929l-1.640625 0l0 -10.453124q-0.59375 0.5625 -1.5625 1.140625q-0.953125 0.5625 -1.71875 0.84375l0 -1.59375q1.375 -0.640625 2.40625 -1.5625q1.03125 -0.921875 1.453125 -1.78125l1.0625 0l0 13.406249zm16.105896 0l0 -1.21875q-0.90625 1.4375 -2.703125 1.4375q-1.15625 0 -2.125 -0.640625q-0.96875 -0.640625 -1.5 -1.78125q-0.53125 -1.140625 -0.53125 -2.625q0 -1.453125 0.484375 -2.625q0.484375 -1.187499 1.4375 -1.812499q0.96875 -0.625 2.171875 -0.625q0.875 0 1.546875 0.375q0.6875 0.359375 1.109375 0.953125l0 -4.796875l1.640625 0l0 13.359374l-1.53125 0zm-5.171875 -4.828125q0 1.859375 0.78125 2.78125q0.78125 0.921875 1.84375 0.921875q1.078125 0 1.828125 -0.875q0.75 -0.890625 0.75 -2.6875q0 -1.984375 -0.765625 -2.90625q-0.765625 -0.93749905 -1.890625 -0.93749905q-1.078125 0 -1.8125 0.89062405q-0.734375 0.890625 -0.734375 2.8125zm9.281967 -6.640624l0 -1.890625l1.640625 0l0 1.890625l-1.640625 0zm0 11.468749l0 -9.671874l1.640625 0l0 9.671874l-1.640625 0zm4.144821 0l0 -9.671874l1.46875 0l0 1.359374q0.453125 -0.71874905 1.203125 -1.140624q0.765625 -0.4375 1.71875 -0.4375q1.078125 0 1.765625 0.453125q0.6875 0.4375 0.96875 1.234374q1.15625 -1.687499 2.984375 -1.687499q1.453125 0 2.21875 0.796875q0.78125 0.79687405 0.78125 2.453124l0 6.640625l-1.640625 0l0 -6.09375q0 -0.984375 -0.15625 -1.40625q-0.15625 -0.4375 -0.578125 -0.703125q-0.421875 -0.26562405 -0.984375 -0.26562405q-1.015625 0 -1.6875 0.68749905q-0.671875 0.671875 -0.671875 2.15625l0 5.625l-1.640625 0l0 -6.28125q0 -1.09375 -0.40625 -1.640625q-0.40625 -0.54687405 -1.3125 -0.54687405q-0.6875 0 -1.28125 0.35937405q-0.59375 0.359375 -0.859375 1.0625q-0.25 0.703125 -0.25 2.03125l0 5.015625l-1.640625 0zm22.165802 -3.109375l1.6875 0.203125q-0.40625 1.484375 -1.484375 2.3125q-1.078125 0.8125 -2.765625 0.8125q-2.125 0 -3.375 -1.296875q-1.234375 -1.3125 -1.234375 -3.671875q0 -2.453125 1.25 -3.796874q1.265625 -1.34375 3.265625 -1.34375q1.9375 0 3.15625 1.328125q1.234375 1.312499 1.234375 3.703124q0 0.15625 0 0.4375l-7.21875 0q0.09375 1.59375 0.90625 2.453125q0.8125 0.84375 2.015625 0.84375q0.90625 0 1.546875 -0.46875q0.640625 -0.484375 1.015625 -1.515625zm-5.390625 -2.65625l5.40625 0q-0.109375 -1.21875 -0.625 -1.828125q-0.78125 -0.95312405 -2.03125 -0.95312405q-1.125 0 -1.90625 0.76562405q-0.765625 0.75 -0.84375 2.015625zm9.141342 5.765625l0 -9.671874l1.46875 0l0 1.374999q1.0625 -1.593749 3.078125 -1.593749q0.875 0 1.609375 0.3125q0.734375 0.3125 1.09375 0.828125q0.375 0.49999905 0.515625 1.203124q0.09375 0.453125 0.09375 1.59375l0 5.953125l-1.640625 0l0 -5.890625q0 -1.0 -0.203125 -1.484375q-0.1875 -0.5 -0.671875 -0.796875q-0.484375 -0.29687405 -1.140625 -0.29687405q-1.046875 0 -1.8125 0.67187405q-0.75 0.65625 -0.75 2.515625l0 5.28125l-1.640625 0zm9.719467 -2.890625l1.625 -0.25q0.125 0.96875 0.75 1.5q0.625 0.515625 1.75 0.515625q1.125 0 1.671875 -0.453125q0.546875 -0.46875 0.546875 -1.09375q0 -0.546875 -0.484375 -0.875q-0.328125 -0.21875 -1.671875 -0.546875q-1.8125 -0.46875 -2.515625 -0.796875q-0.6875 -0.328125 -1.046875 -0.90625q-0.359375 -0.59375 -0.359375 -1.3125q0 -0.640625 0.296875 -1.1875q0.296875 -0.56249905 0.8125 -0.92187405q0.375 -0.28125 1.03125 -0.46875q0.671875 -0.203125 1.421875 -0.203125q1.140625 0 2.0 0.328125q0.859375 0.328125 1.265625 0.890625q0.421875 0.56249905 0.578125 1.499999l-1.609375 0.21875q-0.109375 -0.75 -0.640625 -1.171875q-0.515625 -0.42187405 -1.46875 -0.42187405q-1.140625 0 -1.625 0.37499905q-0.46875 0.375 -0.46875 0.875q0 0.3125 0.1875 0.578125q0.203125 0.265625 0.640625 0.4375q0.234375 0.09375 1.4375 0.421875q1.75 0.453125 2.4375 0.75q0.6875 0.296875 1.078125 0.859375q0.390625 0.5625 0.390625 1.40625q0 0.828125 -0.484375 1.546875q-0.46875 0.71875 -1.375 1.125q-0.90625 0.390625 -2.046875 0.390625q-1.875 0 -2.875 -0.78125q-0.984375 -0.78125 -1.25 -2.328125zm9.984375 -8.578124l0 -1.890625l1.640625 0l0 1.890625l-1.640625 0zm0 11.468749l0 -9.671874l1.640625 0l0 9.671874l-1.640625 0zm3.5354462 -4.84375q0 -2.6875 1.484375 -3.968749q1.25 -1.078125 3.046875 -1.078125q2.0 0 3.265625 1.3125q1.265625 1.296874 1.265625 3.609374q0 1.859375 -0.5625 2.9375q-0.5625 1.0625 -1.640625 1.65625q-1.0625 0.59375 -2.328125 0.59375q-2.03125 0 -3.28125 -1.296875q-1.25 -1.3125 -1.25 -3.765625zm1.6875 0q0 1.859375 0.796875 2.796875q0.8125 0.921875 2.046875 0.921875q1.21875 0 2.03125 -0.921875q0.8125 -0.9375 0.8125 -2.84375q0 -1.796875 -0.8125 -2.71875q-0.8125 -0.92187405 -2.03125 -0.92187405q-1.234375 0 -2.046875 0.92187405q-0.796875 0.90625 -0.796875 2.765625zm9.297592 4.84375l0 -9.671874l1.46875 0l0 1.374999q1.0625 -1.593749 3.078125 -1.593749q0.875 0 1.609375 0.3125q0.734375 0.3125 1.09375 0.828125q0.375 0.49999905 0.515625 1.203124q0.09375 0.453125 0.09375 1.59375l0 5.953125l-1.640625 0l0 -5.890625q0 -1.0 -0.203125 -1.484375q-0.1875 -0.5 -0.671875 -0.796875q-0.484375 -0.29687405 -1.140625 -0.29687405q-1.046875 0 -1.8125 0.67187405q-0.75 0.65625 -0.75 2.515625l0 5.28125l-1.640625 0zm16.688217 -1.1875q-0.921875 0.765625 -1.765625 1.09375q-0.828125 0.3125 -1.796875 0.3125q-1.59375 0 -2.453125 -0.78125q-0.859375 -0.78125 -0.859375 -1.984375q0 -0.71875 0.328125 -1.296875q0.328125 -0.59375 0.84375 -0.9375q0.53125 -0.359375 1.1875 -0.546875q0.46875 -0.125 1.453125 -0.25q1.984375 -0.234375 2.921875 -0.5625q0.015625 -0.34375 0.015625 -0.421875q0 -1.0 -0.46875 -1.421875q-0.625 -0.54687405 -1.875 -0.54687405q-1.15625 0 -1.703125 0.40624905q-0.546875 0.40625 -0.8125 1.421875l-1.609375 -0.21875q0.21875 -1.015625 0.71875 -1.640624q0.5 -0.640625 1.453125 -0.984375q0.953125 -0.34375 2.1875 -0.34375q1.25 0 2.015625 0.296875q0.7812576 0.28125 1.1406326 0.734375q0.375 0.43749905 0.515625 1.109374q0.078125 0.421875 0.078125 1.515625l0 2.1875q0 2.28125 0.109375 2.890625q0.109375 0.59375 0.40625 1.15625l-1.7031326 0q-0.265625 -0.515625 -0.328125 -1.1875zm-0.140625 -3.671875q-0.890625 0.375 -2.671875 0.625q-1.015625 0.140625 -1.4375 0.328125q-0.421875 0.1875 -0.65625 0.53125q-0.21875 0.34375 -0.21875 0.78125q0 0.65625 0.5 1.09375q0.5 0.4375 1.453125 0.4375q0.9375 0 1.671875 -0.40625q0.75 -0.421875 1.09375 -1.140625q0.265625 -0.5625 0.265625 -1.640625l0 -0.609375zm4.156975 4.859375l0 -13.359374l1.640625 0l0 13.359374l-1.640625 0z" fill-rule="nonzero"/><path fill="#000000" fill-opacity="0.0" d="m10.385827 85.54593l600.189 0l0 70.01575l-600.189 0z" fill-rule="evenodd"/><path fill="#000000" d="m28.776451 110.8878l0 1.578125l-8.828125 0q-0.015625 -0.59375 0.1875 -1.140625q0.34375 -0.90625 1.078125 -1.78125q0.75 -0.875 2.15625 -2.015625q2.171875 -1.78125 2.9375 -2.828125q0.765625 -1.046875 0.765625 -1.96875q0 -0.984375 -0.703125 -1.640625q-0.6875 -0.671875 -1.8125 -0.671875q-1.1875 0 -1.90625 0.71875q-0.703125 0.703125 -0.703125 1.953125l-1.6875 -0.171875q0.171875 -1.890625 1.296875 -2.875q1.140625 -0.984375 3.03125 -0.984375q1.921875 0 3.046875 1.0625q1.125 1.0625 1.125 2.640625q0 0.796875 -0.328125 1.578125q-0.328125 0.78125 -1.09375 1.640625q-0.75 0.84375 -2.53125 2.34375q-1.46875 1.234375 -1.890625 1.6875q-0.421875 0.4375 -0.6875 0.875l6.546875 0zm13.668396 1.578125l0 -1.21875q-0.90625 1.4375 -2.703125 1.4375q-1.15625 0 -2.125 -0.640625q-0.96875 -0.640625 -1.5 -1.78125q-0.53125 -1.140625 -0.53125 -2.625q0 -1.453125 0.484375 -2.625q0.484375 -1.1875 1.4375 -1.8125q0.96875 -0.625 2.171875 -0.625q0.875 0 1.546875 0.375q0.6875 0.359375 1.109375 0.953125l0 -4.796875l1.640625 0l0 13.359375l-1.53125 0zm-5.171875 -4.828125q0 1.859375 0.78125 2.78125q0.78125 0.921875 1.84375 0.921875q1.078125 0 1.828125 -0.875q0.75 -0.890625 0.75 -2.6875q0 -1.984375 -0.765625 -2.90625q-0.765625 -0.9375 -1.890625 -0.9375q-1.078125 0 -1.8125 0.890625q-0.734375 0.890625 -0.734375 2.8125zm9.281967 -6.640625l0 -1.890625l1.640625 0l0 1.890625l-1.640625 0zm0 11.46875l0 -9.671875l1.640625 0l0 9.671875l-1.640625 0zm4.144821 0l0 -9.671875l1.46875 0l0 1.359375q0.453125 -0.71875 1.203125 -1.140625q0.765625 -0.4375 1.71875 -0.4375q1.078125 0 1.765625 0.453125q0.6875 0.4375 0.96875 1.234375q1.15625 -1.6875 2.984375 -1.6875q1.453125 0 2.21875 0.796875q0.78125 0.796875 0.78125 2.453125l0 6.640625l-1.640625 0l0 -6.09375q0 -0.984375 -0.15625 -1.40625q-0.15625 -0.4375 -0.578125 -0.703125q-0.421875 -0.265625 -0.984375 -0.265625q-1.015625 0 -1.6875 0.6875q-0.671875 0.671875 -0.671875 2.15625l0 5.625l-1.640625 0l0 -6.28125q0 -1.09375 -0.40625 -1.640625q-0.40625 -0.546875 -1.3125 -0.546875q-0.6875 0 -1.28125 0.359375q-0.59375 0.359375 -0.859375 1.0625q-0.25 0.703125 -0.25 2.03125l0 5.015625l-1.640625 0zm22.165802 -3.109375l1.6875 0.203125q-0.40625 1.484375 -1.484375 2.3125q-1.078125 0.8125 -2.765625 0.8125q-2.125 0 -3.375 -1.296875q-1.234375 -1.3125 -1.234375 -3.671875q0 -2.453125 1.25 -3.796875q1.265625 -1.34375 3.265625 -1.34375q1.9375 0 3.15625 1.328125q1.234375 1.3125 1.234375 3.703125q0 0.15625 0 0.4375l-7.21875 0q0.09375 1.59375 0.90625 2.453125q0.8125 0.84375 2.015625 0.84375q0.90625 0 1.546875 -0.46875q0.640625 -0.484375 1.015625 -1.515625zm-5.390625 -2.65625l5.40625 0q-0.109375 -1.21875 -0.625 -1.828125q-0.78125 -0.953125 -2.03125 -0.953125q-1.125 0 -1.90625 0.765625q-0.765625 0.75 -0.84375 2.015625zm9.141342 5.765625l0 -9.671875l1.46875 0l0 1.375q1.0625 -1.59375 3.078125 -1.59375q0.875 0 1.609375 0.3125q0.734375 0.3125 1.09375 0.828125q0.375 0.5 0.515625 1.203125q0.09375 0.453125 0.09375 1.59375l0 5.953125l-1.640625 0l0 -5.890625q0 -1.0 -0.203125 -1.484375q-0.1875 -0.5 -0.671875 -0.796875q-0.484375 -0.296875 -1.140625 -0.296875q-1.046875 0 -1.8125 0.671875q-0.75 0.65625 -0.75 2.515625l0 5.28125l-1.640625 0zm9.719467 -2.890625l1.625 -0.25q0.125 0.96875 0.75 1.5q0.625 0.515625 1.75 0.515625q1.125 0 1.671875 -0.453125q0.546875 -0.46875 0.546875 -1.09375q0 -0.546875 -0.484375 -0.875q-0.328125 -0.21875 -1.671875 -0.546875q-1.8125 -0.46875 -2.515625 -0.796875q-0.6875 -0.328125 -1.046875 -0.90625q-0.359375 -0.59375 -0.359375 -1.3125q0 -0.640625 0.296875 -1.1875q0.296875 -0.5625 0.8125 -0.921875q0.375 -0.28125 1.03125 -0.46875q0.671875 -0.203125 1.421875 -0.203125q1.140625 0 2.0 0.328125q0.859375 0.328125 1.265625 0.890625q0.421875 0.5625 0.578125 1.5l-1.609375 0.21875q-0.109375 -0.75 -0.640625 -1.171875q-0.515625 -0.421875 -1.46875 -0.421875q-1.140625 0 -1.625 0.375q-0.46875 0.375 -0.46875 0.875q0 0.3125 0.1875 0.578125q0.203125 0.265625 0.640625 0.4375q0.234375 0.09375 1.4375 0.421875q1.75 0.453125 2.4375 0.75q0.6875 0.296875 1.078125 0.859375q0.390625 0.5625 0.390625 1.40625q0 0.828125 -0.484375 1.546875q-0.46875 0.71875 -1.375 1.125q-0.90625 0.390625 -2.046875 0.390625q-1.875 0 -2.875 -0.78125q-0.984375 -0.78125 -1.25 -2.328125zm9.984375 -8.578125l0 -1.890625l1.640625 0l0 1.890625l-1.640625 0zm0 11.46875l0 -9.671875l1.640625 0l0 9.671875l-1.640625 0zm3.5354462 -4.84375q0 -2.6875 1.484375 -3.96875q1.25 -1.078125 3.046875 -1.078125q2.0 0 3.265625 1.3125q1.265625 1.296875 1.265625 3.609375q0 1.859375 -0.5625 2.9375q-0.5625 1.0625 -1.640625 1.65625q-1.0625 0.59375 -2.328125 0.59375q-2.03125 0 -3.28125 -1.296875q-1.25 -1.3125 -1.25 -3.765625zm1.6875 0q0 1.859375 0.796875 2.796875q0.8125 0.921875 2.046875 0.921875q1.21875 0 2.03125 -0.921875q0.8125 -0.9375 0.8125 -2.84375q0 -1.796875 -0.8125 -2.71875q-0.8125 -0.921875 -2.03125 -0.921875q-1.234375 0 -2.046875 0.921875q-0.796875 0.90625 -0.796875 2.765625zm9.297592 4.84375l0 -9.671875l1.46875 0l0 1.375q1.0625 -1.59375 3.078125 -1.59375q0.875 0 1.609375 0.3125q0.734375 0.3125 1.09375 0.828125q0.375 0.5 0.515625 1.203125q0.09375 0.453125 0.09375 1.59375l0 5.953125l-1.640625 0l0 -5.890625q0 -1.0 -0.203125 -1.484375q-0.1875 -0.5 -0.671875 -0.796875q-0.484375 -0.296875 -1.140625 -0.296875q-1.046875 0 -1.8125 0.671875q-0.75 0.65625 -0.75 2.515625l0 5.28125l-1.640625 0zm16.688217 -1.1875q-0.921875 0.765625 -1.765625 1.09375q-0.828125 0.3125 -1.796875 0.3125q-1.59375 0 -2.453125 -0.78125q-0.859375 -0.78125 -0.859375 -1.984375q0 -0.71875 0.328125 -1.296875q0.328125 -0.59375 0.84375 -0.9375q0.53125 -0.359375 1.1875 -0.546875q0.46875 -0.125 1.453125 -0.25q1.984375 -0.234375 2.921875 -0.5625q0.015625 -0.34375 0.015625 -0.421875q0 -1.0 -0.46875 -1.421875q-0.625 -0.546875 -1.875 -0.546875q-1.15625 0 -1.703125 0.40625q-0.546875 0.40625 -0.8125 1.421875l-1.609375 -0.21875q0.21875 -1.015625 0.71875 -1.640625q0.5 -0.640625 1.453125 -0.984375q0.953125 -0.34375 2.1875 -0.34375q1.25 0 2.015625 0.296875q0.7812576 0.28125 1.1406326 0.734375q0.375 0.4375 0.515625 1.109375q0.078125 0.421875 0.078125 1.515625l0 2.1875q0 2.28125 0.109375 2.890625q0.109375 0.59375 0.40625 1.15625l-1.7031326 0q-0.265625 -0.515625 -0.328125 -1.1875zm-0.140625 -3.671875q-0.890625 0.375 -2.671875 0.625q-1.015625 0.140625 -1.4375 0.328125q-0.421875 0.1875 -0.65625 0.53125q-0.21875 0.34375 -0.21875 0.78125q0 0.65625 0.5 1.09375q0.5 0.4375 1.453125 0.4375q0.9375 0 1.671875 -0.40625q0.75 -0.421875 1.09375 -1.140625q0.265625 -0.5625 0.265625 -1.640625l0 -0.609375zm4.156975 4.859375l0 -13.359375l1.640625 0l0 13.359375l-1.640625 0z" fill-rule="nonzero"/><path fill="#000000" d="m59.472443 53.715378l0 0c0 -4.4791603 3.631073 -8.110237 8.110237 -8.110237l0 0c2.1509628 0 4.2138367 0.8544693 5.7348022 2.375431c1.5209656 1.5209656 2.3754349 3.5838356 2.3754349 5.734806l0 0c0 4.4791603 -3.6310806 8.110233 -8.110237 8.110233l0 0c-4.479164 0 -8.110237 -3.631073 -8.110237 -8.110233z" fill-rule="evenodd"/><path stroke="#000000" stroke-width="1.0" stroke-linejoin="round" stroke-linecap="butt" d="m59.472443 53.715378l0 0c0 -4.4791603 3.631073 -8.110237 8.110237 -8.110237l0 0c2.1509628 0 4.2138367 0.8544693 5.7348022 2.375431c1.5209656 1.5209656 2.3754349 3.5838356 2.3754349 5.734806l0 0c0 4.4791603 -3.6310806 8.110233 -8.110237 8.110233l0 0c-4.479164 0 -8.110237 -3.631073 -8.110237 -8.110233z" fill-rule="evenodd"/><path fill="#000000" d="m89.54708 53.715378l0 0c0 -4.4791603 3.6310806 -8.110237 8.110237 -8.110237l0 0c2.1509705 0 4.2138443 0.8544693 5.7348022 2.375431c1.5209656 1.5209656 2.3754349 3.5838356 2.3754349 5.734806l0 0c0 4.4791603 -3.631073 8.110233 -8.110237 8.110233l0 0c-4.4791565 0 -8.110237 -3.631073 -8.110237 -8.110233z" fill-rule="evenodd"/><path stroke="#000000" stroke-width="1.0" stroke-linejoin="round" stroke-linecap="butt" d="m89.54708 53.715378l0 0c0 -4.4791603 3.6310806 -8.110237 8.110237 -8.110237l0 0c2.1509705 0 4.2138443 0.8544693 5.7348022 2.375431c1.5209656 1.5209656 2.3754349 3.5838356 2.3754349 5.734806l0 0c0 4.4791603 -3.631073 8.110233 -8.110237 8.110233l0 0c-4.4791565 0 -8.110237 -3.631073 -8.110237 -8.110233z" fill-rule="evenodd"/><path fill="#000000" d="m155.47244 53.715378l0 0c0 -4.4791603 3.631073 -8.110237 8.1102295 -8.110237l0 0c2.1509705 0 4.2138367 0.8544693 5.7348022 2.375431c1.5209656 1.5209656 2.3754425 3.5838356 2.3754425 5.734806l0 0c0 4.4791603 -3.631073 8.110233 -8.110245 8.110233l0 0c-4.4791565 0 -8.1102295 -3.631073 -8.1102295 -8.110233z" fill-rule="evenodd"/><path stroke="#000000" stroke-width="1.0" stroke-linejoin="round" stroke-linecap="butt" d="m155.47244 53.715378l0 0c0 -4.4791603 3.631073 -8.110237 8.1102295 -8.110237l0 0c2.1509705 0 4.2138367 0.8544693 5.7348022 2.375431c1.5209656 1.5209656 2.3754425 3.5838356 2.3754425 5.734806l0 0c0 4.4791603 -3.631073 8.110233 -8.110245 8.110233l0 0c-4.4791565 0 -8.1102295 -3.631073 -8.1102295 -8.110233z" fill-rule="evenodd"/><path fill="#000000" d="m59.472443 205.71538l0 0c0 -4.4791565 3.631073 -8.110245 8.110237 -8.110245l0 0c2.1509628 0 4.2138367 0.8544769 5.7348022 2.3754425c1.5209656 1.5209656 2.3754349 3.5838318 2.3754349 5.7348022l0 0c0 4.4791565 -3.6310806 8.1102295 -8.110237 8.1102295l0 0c-4.479164 0 -8.110237 -3.631073 -8.110237 -8.1102295z" fill-rule="evenodd"/><path stroke="#000000" stroke-width="1.0" stroke-linejoin="round" stroke-linecap="butt" d="m59.472443 205.71538l0 0c0 -4.4791565 3.631073 -8.110245 8.110237 -8.110245l0 0c2.1509628 0 4.2138367 0.8544769 5.7348022 2.3754425c1.5209656 1.5209656 2.3754349 3.5838318 2.3754349 5.7348022l0 0c0 4.4791565 -3.6310806 8.1102295 -8.110237 8.1102295l0 0c-4.479164 0 -8.110237 -3.631073 -8.110237 -8.1102295z" fill-rule="evenodd"/><path fill="#000000" d="m91.47244 205.71538l0 0c0 -4.4791565 3.631073 -8.110245 8.110237 -8.110245l0 0c2.1509628 0 4.2138367 0.8544769 5.7348022 2.3754425c1.5209656 1.5209656 2.3754349 3.5838318 2.3754349 5.7348022l0 0c0 4.4791565 -3.6310806 8.1102295 -8.110237 8.1102295l0 0c-4.479164 0 -8.110237 -3.631073 -8.110237 -8.1102295z" fill-rule="evenodd"/><path stroke="#000000" stroke-width="1.0" stroke-linejoin="round" stroke-linecap="butt" d="m91.47244 205.71538l0 0c0 -4.4791565 3.631073 -8.110245 8.110237 -8.110245l0 0c2.1509628 0 4.2138367 0.8544769 5.7348022 2.3754425c1.5209656 1.5209656 2.3754349 3.5838318 2.3754349 5.7348022l0 0c0 4.4791565 -3.6310806 8.1102295 -8.110237 8.1102295l0 0c-4.479164 0 -8.110237 -3.631073 -8.110237 -8.1102295z" fill-rule="evenodd"/><path fill="#000000" d="m123.47244 205.71538l0 0c0 -4.4791565 3.631073 -8.110245 8.1102295 -8.110245l0 0c2.1509705 0 4.2138367 0.8544769 5.7348022 2.3754425c1.5209656 1.5209656 2.3754425 3.5838318 2.3754425 5.7348022l0 0c0 4.4791565 -3.631073 8.1102295 -8.110245 8.1102295l0 0c-4.4791565 0 -8.1102295 -3.631073 -8.1102295 -8.1102295z" fill-rule="evenodd"/><path stroke="#000000" stroke-width="1.0" stroke-linejoin="round" stroke-linecap="butt" d="m123.47244 205.71538l0 0c0 -4.4791565 3.631073 -8.110245 8.1102295 -8.110245l0 0c2.1509705 0 4.2138367 0.8544769 5.7348022 2.3754425c1.5209656 1.5209656 2.3754425 3.5838318 2.3754425 5.7348022l0 0c0 4.4791565 -3.631073 8.1102295 -8.110245 8.1102295l0 0c-4.4791565 0 -8.1102295 -3.631073 -8.1102295 -8.1102295z" fill-rule="evenodd"/><path fill="#000000" d="m91.47244 173.71538l0 0c0 -4.4791565 3.631073 -8.110245 8.110237 -8.110245l0 0c2.1509628 0 4.2138367 0.8544769 5.7348022 2.3754425c1.5209656 1.5209656 2.3754349 3.5838318 2.3754349 5.7348022l0 0c0 4.4791565 -3.6310806 8.1102295 -8.110237 8.1102295l0 0c-4.479164 0 -8.110237 -3.631073 -8.110237 -8.1102295z" fill-rule="evenodd"/><path stroke="#000000" stroke-width="1.0" stroke-linejoin="round" stroke-linecap="butt" d="m91.47244 173.71538l0 0c0 -4.4791565 3.631073 -8.110245 8.110237 -8.110245l0 0c2.1509628 0 4.2138367 0.8544769 5.7348022 2.3754425c1.5209656 1.5209656 2.3754349 3.5838318 2.3754349 5.7348022l0 0c0 4.4791565 -3.6310806 8.1102295 -8.110237 8.1102295l0 0c-4.479164 0 -8.110237 -3.631073 -8.110237 -8.1102295z" fill-rule="evenodd"/><path fill="#000000" d="m123.47244 237.71538l0 0c0 -4.4791565 3.631073 -8.110245 8.1102295 -8.110245l0 0c2.1509705 0 4.2138367 0.8544769 5.7348022 2.3754425c1.5209656 1.5209656 2.3754425 3.5838318 2.3754425 5.7348022l0 0c0 4.4791565 -3.631073 8.1102295 -8.110245 8.1102295l0 0c-4.4791565 0 -8.1102295 -3.631073 -8.1102295 -8.1102295z" fill-rule="evenodd"/><path stroke="#000000" stroke-width="1.0" stroke-linejoin="round" stroke-linecap="butt" d="m123.47244 237.71538l0 0c0 -4.4791565 3.631073 -8.110245 8.1102295 -8.110245l0 0c2.1509705 0 4.2138367 0.8544769 5.7348022 2.3754425c1.5209656 1.5209656 2.3754425 3.5838318 2.3754425 5.7348022l0 0c0 4.4791565 -3.631073 8.1102295 -8.110245 8.1102295l0 0c-4.4791565 0 -8.1102295 -3.631073 -8.1102295 -8.1102295z" fill-rule="evenodd"/><path fill="#000000" d="m59.472443 269.71536l0 0c0 -4.4791565 3.631073 -8.1102295 8.110237 -8.1102295l0 0c2.1509628 0 4.2138367 0.85446167 5.7348022 2.3754272c1.5209656 1.5209656 2.3754349 3.5838623 2.3754349 5.7348022l0 0c0 4.479187 -3.6310806 8.11026 -8.110237 8.11026l0 0c-4.479164 0 -8.110237 -3.631073 -8.110237 -8.11026z" fill-rule="evenodd"/><path stroke="#000000" stroke-width="1.0" stroke-linejoin="round" stroke-linecap="butt" d="m59.472443 269.71536l0 0c0 -4.4791565 3.631073 -8.1102295 8.110237 -8.1102295l0 0c2.1509628 0 4.2138367 0.85446167 5.7348022 2.3754272c1.5209656 1.5209656 2.3754349 3.5838623 2.3754349 5.7348022l0 0c0 4.479187 -3.6310806 8.11026 -8.110237 8.11026l0 0c-4.479164 0 -8.110237 -3.631073 -8.110237 -8.11026z" fill-rule="evenodd"/><path fill="#000000" d="m155.47244 269.71536l0 0c0 -4.4791565 3.631073 -8.1102295 8.1102295 -8.1102295l0 0c2.1509705 0 4.2138367 0.85446167 5.7348022 2.3754272c1.5209656 1.5209656 2.3754425 3.5838623 2.3754425 5.7348022l0 0c0 4.479187 -3.631073 8.11026 -8.110245 8.11026l0 0c-4.4791565 0 -8.1102295 -3.631073 -8.1102295 -8.11026z" fill-rule="evenodd"/><path stroke="#000000" stroke-width="1.0" stroke-linejoin="round" stroke-linecap="butt" d="m155.47244 269.71536l0 0c0 -4.4791565 3.631073 -8.1102295 8.1102295 -8.1102295l0 0c2.1509705 0 4.2138367 0.85446167 5.7348022 2.3754272c1.5209656 1.5209656 2.3754425 3.5838623 2.3754425 5.7348022l0 0c0 4.479187 -3.631073 8.11026 -8.110245 8.11026l0 0c-4.4791565 0 -8.1102295 -3.631073 -8.1102295 -8.11026z" fill-rule="evenodd"/></g></svg>