<svg version="1.1" viewBox="0.0 0.0 229.5301837270341 182.09186351706037" fill="none" stroke="none" stroke-linecap="square" stroke-miterlimit="10" xmlns:xlink="http://www.w3.org/1999/xlink" xmlns="http://www.w3.org/2000/svg"><clipPath id="p.0"><path d="m0 0l229.53018 0l0 182.09186l-229.53018 0l0 -182.09186z" clip-rule="nonzero"/></clipPath><g clip-path="url(#p.0)"><path fill="#000000" fill-opacity="0.0" d="m0 0l229.53018 0l0 182.09186l-229.53018 0z" fill-rule="evenodd"/><path fill="#cfe2f3" d="m19.425198 37.51181l32.31496 0l0 32.314964l-32.31496 0z" fill-rule="evenodd"/><path stroke="#000000" stroke-width="1.0" stroke-linejoin="round" stroke-linecap="butt" d="m19.425198 37.51181l32.31496 0l0 32.314964l-32.31496 0z" fill-rule="evenodd"/><path fill="#cfe2f3" d="m51.425198 37.51181l32.31496 0l0 32.314964l-32.31496 0z" fill-rule="evenodd"/><path stroke="#000000" stroke-width="1.0" stroke-linejoin="round" stroke-linecap="butt" d="m51.425198 37.51181l32.31496 0l0 32.314964l-32.31496 0z" fill-rule="evenodd"/><path fill="#cfe2f3" d="m83.42519 37.51181l32.314964 0l0 32.314964l-32.314964 0z" fill-rule="evenodd"/><path stroke="#000000" stroke-width="1.0" stroke-linejoin="round" stroke-linecap="butt" d="m83.42519 37.51181l32.314964 0l0 32.314964l-32.314964 0z" fill-rule="evenodd"/><path fill="#cfe2f3" d="m115.42519 37.51181l32.314964 0l0 32.314964l-32.314964 0z" fill-rule="evenodd"/><path stroke="#000000" stroke-width="1.0" stroke-linejoin="round" stroke-linecap="butt" d="m115.42519 37.51181l32.314964 0l0 32.314964l-32.314964 0z" fill-rule="evenodd"/><path fill="#cfe2f3" d="m147.4252 37.51181l32.314957 0l0 32.314964l-32.314957 0z" fill-rule="evenodd"/><path stroke="#000000" stroke-width="1.0" stroke-linejoin="round" stroke-linecap="butt" d="m147.4252 37.51181l32.314957 0l0 32.314964l-32.314957 0z" fill-rule="evenodd"/><path fill="#cfe2f3" d="m179.4252 37.51181l32.314957 0l0 32.314964l-32.314957 0z" fill-rule="evenodd"/><path stroke="#000000" stroke-width="1.0" stroke-linejoin="round" stroke-linecap="butt" d="m179.4252 37.51181l32.314957 0l0 32.314964l-32.314957 0z" fill-rule="evenodd"/><path fill="#000000" d="m59.472443 53.715378l0 0c0 -4.4791603 3.631073 -8.110237 8.110237 -8.110237l0 0c2.1509628 0 4.2138367 0.8544693 5.7348022 2.375431c1.5209656 1.5209656 2.3754349 3.5838356 2.3754349 5.734806l0 0c0 4.4791603 -3.6310806 8.110233 -8.110237 8.110233l0 0c-4.479164 0 -8.110237 -3.631073 -8.110237 -8.110233z" fill-rule="evenodd"/><path stroke="#000000" stroke-width="1.0" stroke-linejoin="round" stroke-linecap="butt" d="m59.472443 53.715378l0 0c0 -4.4791603 3.631073 -8.110237 8.110237 -8.110237l0 0c2.1509628 0 4.2138367 0.8544693 5.7348022 2.375431c1.5209656 1.5209656 2.3754349 3.5838356 2.3754349 5.734806l0 0c0 4.4791603 -3.6310806 8.110233 -8.110237 8.110233l0 0c-4.479164 0 -8.110237 -3.631073 -8.110237 -8.110233z" fill-rule="evenodd"/><path fill="#000000" d="m89.54708 53.715378l0 0c0 -4.4791603 3.6310806 -8.110237 8.110237 -8.110237l0 0c2.1509705 0 4.2138443 0.8544693 5.7348022 2.375431c1.5209656 1.5209656 2.3754349 3.5838356 2.3754349 5.734806l0 0c0 4.4791603 -3.631073 8.110233 -8.110237 8.110233l0 0c-4.4791565 0 -8.110237 -3.631073 -8.110237 -8.110233z" fill-rule="evenodd"/><path stroke="#000000" stroke-width="1.0" stroke-linejoin="round" stroke-linecap="butt" d="m89.54708 53.715378l0 0c0 -4.4791603 3.6310806 -8.110237 8.110237 -8.110237l0 0c2.1509705 0 4.2138443 0.8544693 5.7348022 2.375431c1.5209656 1.5209656 2.3754349 3.5838356 2.3754349 5.734806l0 0c0 4.4791603 -3.631073 8.110233 -8.110237 8.110233l0 0c-4.4791565 0 -8.110237 -3.631073 -8.110237 -8.110233z" fill-rule="evenodd"/><path fill="#000000" d="m155.47244 53.715378l0 0c0 -4.4791603 3.631073 -8.110237 8.1102295 -8.110237l0 0c2.1509705 0 4.2138367 0.8544693 5.7348022 2.375431c1.5209656 1.5209656 2.3754425 3.5838356 2.3754425 5.734806l0 0c0 4.4791603 -3.631073 8.110233 -8.110245 8.110233l0 0c-4.4791565 0 -8.1102295 -3.631073 -8.1102295 -8.110233z" fill-rule="evenodd"/><path stroke="#000000" stroke-width="1.0" stroke-linejoin="round" stroke-linecap="butt" d="m155.47244 53.715378l0 0c0 -4.4791603 3.631073 -8.110237 8.1102295 -8.110237l0 0c2.1509705 0 4.2138367 0.8544693 5.7348022 2.375431c1.5209656 1.5209656 2.3754425 3.5838356 2.3754425 5.734806l0 0c0 4.4791603 -3.631073 8.110233 -8.110245 8.110233l0 0c-4.4791565 0 -8.1102295 -3.631073 -8.1102295 -8.110233z" fill-rule="evenodd"/><path fill="#cfe2f3" d="m19.425198 133.51181l32.31496 0l0 32.314957l-32.31496 0z" fill-rule="evenodd"/><path stroke="#000000" stroke-width="1.0" stroke-linejoin="round" stroke-linecap="butt" d="m19.425198 133.51181l32.31496 0l0 32.314957l-32.31496 0z" fill-rule="evenodd"/><path fill="#cfe2f3" d="m51.425198 133.51181l32.31496 0l0 32.314957l-32.31496 0z" fill-rule="evenodd"/><path stroke="#000000" stroke-width="1.0" stroke-linejoin="round" stroke-linecap="butt" d="m51.425198 133.51181l32.31496 0l0 32.314957l-32.31496 0z" fill-rule="evenodd"/><path fill="#cfe2f3" d="m83.42519 133.51181l32.314964 0l0 32.314957l-32.314964 0z" fill-rule="evenodd"/><path stroke="#000000" stroke-width="1.0" stroke-linejoin="round" stroke-linecap="butt" d="m83.42519 133.51181l32.314964 0l0 32.314957l-32.314964 0z" fill-rule="evenodd"/><path fill="#cfe2f3" d="m115.42519 133.51181l32.314964 0l0 32.314957l-32.314964 0z" fill-rule="evenodd"/><path stroke="#000000" stroke-width="1.0" stroke-linejoin="round" stroke-linecap="butt" d="m115.42519 133.51181l32.314964 0l0 32.314957l-32.314964 0z" fill-rule="evenodd"/><path fill="#cfe2f3" d="m147.4252 133.51181l32.314957 0l0 32.314957l-32.314957 0z" fill-rule="evenodd"/><path stroke="#000000" stroke-width="1.0" stroke-linejoin="round" stroke-linecap="butt" d="m147.4252 133.51181l32.314957 0l0 32.314957l-32.314957 0z" fill-rule="evenodd"/><path fill="#cfe2f3" d="m179.4252 133.51181l32.314957 0l0 32.314957l-32.314957 0z" fill-rule="evenodd"/><path stroke="#000000" stroke-width="1.0" stroke-linejoin="round" stroke-linecap="butt" d="m179.4252 133.51181l32.314957 0l0 32.314957l-32.314957 0z" fill-rule="evenodd"/><path fill="#000000" d="m27.47244 149.71538l0 0c0 -4.4791565 3.6310768 -8.110245 8.110235 -8.110245l0 0c2.1509705 0 4.2138405 0.8544769 5.734806 2.3754425c1.5209618 1.5209656 2.375431 3.5838318 2.375431 5.7348022l0 0c0 4.4791565 -3.6310768 8.1102295 -8.110237 8.1102295l0 0c-4.4791584 0 -8.110235 -3.631073 -8.110235 -8.1102295z" fill-rule="evenodd"/><path stroke="#000000" stroke-width="1.0" stroke-linejoin="round" stroke-linecap="butt" d="m27.47244 149.71538l0 0c0 -4.4791565 3.6310768 -8.110245 8.110235 -8.110245l0 0c2.1509705 0 4.2138405 0.8544769 5.734806 2.3754425c1.5209618 1.5209656 2.375431 3.5838318 2.375431 5.7348022l0 0c0 4.4791565 -3.6310768 8.1102295 -8.110237 8.1102295l0 0c-4.4791584 0 -8.110235 -3.631073 -8.110235 -8.1102295z" fill-rule="evenodd"/><path fill="#000000" d="m122.44139 149.71538l0 0c0 -4.4791565 3.631073 -8.110245 8.1102295 -8.110245l0 0c2.1509705 0 4.213852 0.8544769 5.7348022 2.3754425c1.5209656 1.5209656 2.3754425 3.5838318 2.3754425 5.7348022l0 0c0 4.4791565 -3.631073 8.1102295 -8.110245 8.1102295l0 0c-4.4791565 0 -8.1102295 -3.631073 -8.1102295 -8.1102295z" fill-rule="evenodd"/><path stroke="#000000" stroke-width="1.0" stroke-linejoin="round" stroke-linecap="butt" d="m122.44139 149.71538l0 0c0 -4.4791565 3.631073 -8.110245 8.1102295 -8.110245l0 0c2.1509705 0 4.213852 0.8544769 5.7348022 2.3754425c1.5209656 1.5209656 2.3754425 3.5838318 2.3754425 5.7348022l0 0c0 4.4791565 -3.631073 8.1102295 -8.110245 8.1102295l0 0c-4.4791565 0 -8.1102295 -3.631073 -8.1102295 -8.1102295z" fill-rule="evenodd"/><path fill="#000000" d="m187.47244 149.71538l0 0c0 -4.4791565 3.631073 -8.110245 8.1102295 -8.110245l0 0c2.1509705 0 4.2138367 0.8544769 5.7348022 2.3754425c1.5209656 1.5209656 2.3754425 3.5838318 2.3754425 5.7348022l0 0c0 4.4791565 -3.631073 8.1102295 -8.110245 8.1102295l0 0c-4.4791565 0 -8.1102295 -3.631073 -8.1102295 -8.1102295z" fill-rule="evenodd"/><path stroke="#000000" stroke-width="1.0" stroke-linejoin="round" stroke-linecap="butt" d="m187.47244 149.71538l0 0c0 -4.4791565 3.631073 -8.110245 8.1102295 -8.110245l0 0c2.1509705 0 4.2138367 0.8544769 5.7348022 2.3754425c1.5209656 1.5209656 2.3754425 3.5838318 2.3754425 5.7348022l0 0c0 4.4791565 -3.631073 8.1102295 -8.110245 8.1102295l0 0c-4.4791565 0 -8.1102295 -3.631073 -8.1102295 -8.1102295z" fill-rule="evenodd"/><path fill="#000000" fill-opacity="0.0" d="m13.464567 10.721785l76.09448 0l0 21.44882l-76.09448 0z" fill-rule="evenodd"/><path fill="#000000" d="m30.292692 29.178034l1.265625 0.3125q-0.390625 1.5625 -1.421875 2.375q-1.03125 0.8125019 -2.53125 0.8125019q-1.53125 0 -2.5 -0.625q-0.96875 -0.6250019 -1.484375 -1.8125019q-0.5 -1.1875 -0.5 -2.5625q0 -1.484375 0.5625 -2.59375q0.578125 -1.109375 1.625 -1.6875q1.0625 -0.578125 2.328125 -0.578125q1.421875 0 2.390625 0.734375q0.984375 0.71875 1.375 2.046875l-1.25 0.296875q-0.328125 -1.046875 -0.96875 -1.515625q-0.625 -0.484375 -1.578125 -0.484375q-1.09375 0 -1.84375 0.53125q-0.734375 0.53125 -1.03125 1.421875q-0.296875 0.875 -0.296875 1.828125q0 1.21875 0.34375 2.125q0.359375 0.90625 1.109375 1.359375q0.75 0.4375 1.625 0.4375q1.0625 0 1.796875 -0.609375q0.734375 -0.609375 0.984375 -1.8125zm7.2032757 3.343752l0 -1.0156269q-0.8125 1.1718769 -2.1875 1.1718769q-0.609375 0 -1.140625 -0.234375q-0.53125 -0.234375 -0.796875 -0.5781269q-0.25 -0.359375 -0.359375 -0.875q-0.0625 -0.34375 -0.0625 -1.09375l0 -4.28125l1.171875 0l0 3.828125q0 0.921875 0.0625 1.234375q0.109375 0.46875 0.46875 0.734375q0.359375 0.25 0.890625 0.25q0.515625 0 0.984375 -0.265625q0.46875 -0.265625 0.65625 -0.734375q0.1875 -0.46875 0.1875 -1.34375l0 -3.703125l1.171875 0l0 6.906252l-1.046875 0zm2.8656006 0l0 -6.906252l1.0625 0l0 1.046875q0.40625 -0.734375 0.734375 -0.96875q0.34375 -0.234375 0.765625 -0.234375q0.59375 0 1.203125 0.375l-0.40625 1.078125q-0.4375 -0.25 -0.859375 -0.25q-0.390625 0 -0.703125 0.234375q-0.296875 0.234375 -0.421875 0.640625q-0.203125 0.625 -0.203125 1.359375l0 3.625002l-1.171875 0zm12.781982 -3.734377l0 -1.125l4.03125 -0.015625l0 3.546875q-0.921875 0.75 -1.921875 1.1250019q-0.984375 0.359375 -2.03125 0.359375q-1.40625 0 -2.5625 -0.59375q-1.140625 -0.6093769 -1.734375 -1.7343769q-0.578125 -1.140625 -0.578125 -2.546875q0 -1.40625 0.578125 -2.609375q0.59375 -1.203125 1.6875 -1.78125q1.09375 -0.59375 2.515625 -0.59375q1.03125 0 1.859375 0.34375q0.84375 0.328125 1.3125 0.9375q0.484375 0.59375 0.734375 1.546875l-1.140625 0.3125q-0.21875 -0.71875 -0.53125 -1.140625q-0.3125 -0.421875 -0.90625 -0.671875q-0.59375 -0.25 -1.3125 -0.25q-0.875 0 -1.515625 0.265625q-0.625 0.265625 -1.015625 0.703125q-0.375 0.421875 -0.59375 0.9375q-0.359375 0.875 -0.359375 1.921875q0 1.265625 0.4375 2.125q0.4375 0.859375 1.265625 1.28125q0.84375 0.421875 1.796875 0.421875q0.8125 0 1.59375 -0.3125q0.78125 -0.328125 1.1875 -0.6875l0 -1.765625l-2.796875 0zm10.476425 1.515625l1.2031288 0.140625q-0.28125 1.0625 -1.0625038 1.6562519q-0.765625 0.578125 -1.96875 0.578125q-1.515625 0 -2.40625 -0.9375019q-0.890625 -0.9375 -0.890625 -2.609375q0 -1.75 0.890625 -2.703125q0.90625 -0.96875 2.34375 -0.96875q1.390625 0 2.265625 0.9375q0.8750038 0.9375 0.8750038 2.65625q0 0.109375 0 0.3125l-5.156254 0q0.0625 1.140625 0.640625 1.75q0.578125 0.59375 1.4375 0.59375q0.65625 0 1.109375 -0.328125q0.453125 -0.34375 0.71875 -1.078125zm-3.84375 -1.90625l3.859375 0q-0.078125 -0.859375 -0.4375 -1.296875q-0.5625 -0.6875 -1.453125 -0.6875q-0.8125 0 -1.359375 0.546875q-0.546875 0.53125 -0.609375 1.4375zm6.5218544 4.125002l0 -6.906252l1.0625 0l0 0.984375q0.75 -1.140625 2.1875 -1.140625q0.625 0 1.15625 0.21875q0.53125 0.21875 0.78125 0.59375q0.265625 0.359375 0.375 0.859375q0.0625 0.328125 0.0625 1.140625l0 4.250002l-1.171875 0l0 -4.203127q0 -0.71875 -0.140625 -1.0625q-0.140625 -0.359375 -0.484375 -0.5625q-0.34375 -0.21875 -0.8125 -0.21875q-0.75 0 -1.296875 0.46875q-0.546875 0.46875 -0.546875 1.796875l0 3.781252l-1.171875 0z" fill-rule="nonzero"/><path fill="#000000" fill-opacity="0.0" d="m13.464567 107.61589l76.09448 0l0 21.448822l-76.09448 0z" fill-rule="evenodd"/><path fill="#000000" d="m23.480192 129.4159l0 -9.546883l1.296875 0l5.015625 7.5l0 -7.5l1.203125 0l0 9.546883l-1.296875 0l-5.015625 -7.5000076l0 7.5000076l-1.203125 0zm14.218901 -2.2187576l1.203125 0.140625q-0.28125 1.0625076 -1.0625 1.6562576q-0.765625 0.578125 -1.96875 0.578125q-1.515625 0 -2.40625 -0.9375q-0.890625 -0.9375076 -0.890625 -2.6093826q0 -1.75 0.890625 -2.703125q0.90625 -0.96875 2.34375 -0.96875q1.390625 0 2.265625 0.9375q0.875 0.9375 0.875 2.65625q0 0.109375 0 0.3125l-5.15625 0q0.0625 1.140625 0.640625 1.7500076q0.578125 0.59375 1.4375 0.59375q0.65625 0 1.109375 -0.328125q0.453125 -0.34375763 0.71875 -1.0781326zm-3.84375 -1.90625l3.859375 0q-0.078125 -0.859375 -0.4375 -1.296875q-0.5625 -0.6875 -1.453125 -0.6875q-0.8125 0 -1.359375 0.546875q-0.546875 0.53125 -0.609375 1.4375zm5.7406006 4.1250076l2.53125 -3.5937576l-2.34375 -3.3125l1.46875 0l1.0625 1.609375q0.296875 0.46875 0.484375 0.78125q0.28125 -0.4375 0.515625 -0.765625l1.171875 -1.625l1.40625 0l-2.390625 3.25l2.5625 3.6562576l-1.4375 0l-1.421875 -2.1406326l-0.375 -0.59375l-1.8125 2.7343826l-1.421875 0zm10.0078125 -1.046875l0.171875 1.03125q-0.5 0.109375 -0.890625 0.109375q-0.640625 0 -1.0 -0.203125q-0.34375 -0.203125 -0.484375 -0.53125q-0.140625 -0.328125 -0.140625 -1.3906326l0 -3.96875l-0.859375 0l0 -0.90625l0.859375 0l0 -1.71875l1.171875 -0.703125l0 2.421875l1.171875 0l0 0.90625l-1.171875 0l0 4.046875q0 0.5 0.046875 0.6406326q0.0625 0.140625 0.203125 0.234375q0.140625 0.078125 0.40625 0.078125q0.203125 0 0.515625 -0.046875zm9.468475 -2.6875076l0 -1.125l4.03125 -0.015625l0 3.5468826q-0.921875 0.75 -1.921875 1.125q-0.984375 0.359375 -2.03125 0.359375q-1.40625 0 -2.5625 -0.59375q-1.140625 -0.609375 -1.734375 -1.7343826q-0.578125 -1.140625 -0.578125 -2.546875q0 -1.40625 0.578125 -2.609375q0.59375 -1.203125 1.6875 -1.78125q1.09375 -0.59375 2.515625 -0.59375q1.03125 0 1.859375 0.34375q0.84375 0.328125 1.3125 0.9375q0.484375 0.59375 0.734375 1.546875l-1.140625 0.3125q-0.21875 -0.71875 -0.53125 -1.140625q-0.3125 -0.421875 -0.90625 -0.671875q-0.59375 -0.25 -1.3125 -0.25q-0.875 0 -1.515625 0.265625q-0.625 0.265625 -1.015625 0.703125q-0.375 0.421875 -0.59375 0.9375q-0.359375 0.875 -0.359375 1.921875q0 1.265625 0.4375 2.125q0.4375 0.859375 1.265625 1.2812576q0.84375 0.421875 1.796875 0.421875q0.8125 0 1.59375 -0.3125q0.78125 -0.32813263 1.1875 -0.6875076l0 -1.765625l-2.796875 0zm10.476429 1.515625l1.203125 0.140625q-0.28125 1.0625076 -1.0625 1.6562576q-0.765625 0.578125 -1.96875 0.578125q-1.515625 0 -2.40625 -0.9375q-0.890625 -0.9375076 -0.890625 -2.6093826q0 -1.75 0.890625 -2.703125q0.90625 -0.96875 2.34375 -0.96875q1.390625 0 2.265625 0.9375q0.875 0.9375 0.875 2.65625q0 0.109375 0 0.3125l-5.15625 0q0.0625 1.140625 0.640625 1.7500076q0.578125 0.59375 1.4375 0.59375q0.65625 0 1.109375 -0.328125q0.453125 -0.34375763 0.71875 -1.0781326zm-3.84375 -1.90625l3.859375 0q-0.078125 -0.859375 -0.4375 -1.296875q-0.5625 -0.6875 -1.453125 -0.6875q-0.8125 0 -1.359375 0.546875q-0.546875 0.53125 -0.609375 1.4375zm6.5218506 4.1250076l0 -6.9062576l1.0625 0l0 0.984375q0.75 -1.140625 2.1875 -1.140625q0.625 0 1.15625 0.21875q0.53125 0.21875 0.78125 0.59375q0.265625 0.359375 0.375 0.859375q0.0625 0.328125 0.0625 1.140625l0 4.2500076l-1.171875 0l0 -4.2031326q0 -0.71875 -0.140625 -1.0625q-0.140625 -0.359375 -0.484375 -0.5625q-0.34375 -0.21875 -0.8125 -0.21875q-0.75 0 -1.296875 0.46875q-0.546875 0.46875 -0.546875 1.796875l0 3.7812576l-1.171875 0z" fill-rule="nonzero"/><path fill="#000000" fill-opacity="0.0" d="m80.12072 34.475037l102.92913 0l0 38.83465l-102.92913 0z" fill-rule="evenodd"/><path stroke="#ff0000" stroke-width="2.0" stroke-linejoin="round" stroke-linecap="butt" d="m80.12072 34.475037l102.92913 0l0 38.83465l-102.92913 0z" fill-rule="evenodd"/><path fill="#000000" fill-opacity="0.0" d="m113.13909 130.61942l36.409447 0l0 38.83464l-36.409447 0z" fill-rule="evenodd"/><path stroke="#ff0000" stroke-width="2.0" stroke-linejoin="round" stroke-linecap="butt" d="m113.13909 130.61942l36.409447 0l0 38.83464l-36.409447 0z" fill-rule="evenodd"/><path fill="#000000" fill-opacity="0.0" d="m72.351 62.17744l184.53545 0l0 21.511806l-184.53545 0z" fill-rule="evenodd"/><path fill="#ff0000" d="m82.56975 86.53744l0 -11.453125l1.5625 0l6.015625 8.984375l0 -8.984375l1.453125 0l0 11.453125l-1.5625 0l-6.015625 -9.0l0 9.0l-1.453125 0zm17.070312 -2.671875l1.453125 0.171875q-0.34375 1.28125 -1.28125 1.984375q-0.921875 0.703125 -2.359375 0.703125q-1.828125 0 -2.890625 -1.125q-1.0625 -1.125 -1.0625 -3.140625q0 -2.09375 1.078125 -3.25q1.078125 -1.15625 2.796875 -1.15625q1.65625 0 2.703125 1.140625q1.0625 1.125 1.0625 3.171875q0 0.125 0 0.375l-6.1875 0q0.078125 1.375 0.765625 2.109375q0.703125 0.71875 1.734375 0.71875q0.78125 0 1.328125 -0.40625q0.546875 -0.40625 0.859375 -1.296875zm-4.609375 -2.28125l4.625 0q-0.09375 -1.046875 -0.53125 -1.5625q-0.671875 -0.8125 -1.734375 -0.8125q-0.96875 0 -1.640625 0.65625q-0.65625 0.640625 -0.71875 1.71875zm7.8359375 -4.890625l0 -1.609375l1.40625 0l0 1.609375l-1.40625 0zm0 9.84375l0 -8.296875l1.40625 0l0 8.296875l-1.40625 0zm3.2890625 0.6875l1.375 0.203125q0.078125 0.640625 0.46875 0.921875q0.53125 0.390625 1.4375 0.390625q0.96875 0 1.5 -0.390625q0.53125 -0.390625 0.71875 -1.09375q0.109375 -0.421875 0.109375 -1.8125q-0.921875 1.09375 -2.296875 1.09375q-1.71875 0 -2.65625 -1.234375q-0.9375 -1.234375 -0.9375 -2.96875q0 -1.1875 0.421875 -2.1875q0.4375 -1.0 1.25 -1.546875q0.828125 -0.546875 1.921875 -0.546875q1.46875 0 2.421875 1.1875l0 -1.0l1.296875 0l0 7.171875q0 1.9375 -0.390625 2.75q-0.390625 0.8125 -1.25 1.28125q-0.859375 0.46875 -2.109375 0.46875q-1.484375 0 -2.40625 -0.671875q-0.90625 -0.671875 -0.875 -2.015625zm1.171875 -4.984375q0 1.625 0.640625 2.375q0.65625 0.75 1.625 0.75q0.96875 0 1.625 -0.734375q0.65625 -0.75 0.65625 -2.34375q0 -1.53125 -0.671875 -2.296875q-0.671875 -0.78125 -1.625 -0.78125q-0.9375 0 -1.59375 0.765625q-0.65625 0.765625 -0.65625 2.265625zm7.9921875 4.296875l0 -11.453125l1.40625 0l0 4.109375q0.984375 -1.140625 2.484375 -1.140625q0.921875 0 1.59375 0.359375q0.6875 0.359375 0.96875 1.0q0.296875 0.640625 0.296875 1.859375l0 5.265625l-1.40625 0l0 -5.265625q0 -1.046875 -0.453125 -1.53125q-0.453125 -0.484375 -1.296875 -0.484375q-0.625 0 -1.171875 0.328125q-0.546875 0.328125 -0.78125 0.890625q-0.234375 0.546875 -0.234375 1.515625l0 4.546875l-1.40625 0zm10.1953125 0l-1.3125 0l0 -11.453125l1.40625 0l0 4.078125q0.890625 -1.109375 2.28125 -1.109375q0.765625 0 1.4375 0.3125q0.6875 0.296875 1.125 0.859375q0.453125 0.5625 0.703125 1.359375q0.25 0.78125 0.25 1.671875q0 2.140625 -1.0625 3.3125q-1.046875 1.15625 -2.53125 1.15625q-1.46875 0 -2.296875 -1.234375l0 1.046875zm-0.015625 -4.21875q0 1.5 0.40625 2.15625q0.65625 1.09375 1.796875 1.09375q0.921875 0 1.59375 -0.796875q0.671875 -0.8125 0.671875 -2.390625q0 -1.625 -0.65625 -2.390625q-0.640625 -0.78125 -1.546875 -0.78125q-0.921875 0 -1.59375 0.796875q-0.671875 0.796875 -0.671875 2.3125zm7.0859375 0.0625q0 -2.296875 1.28125 -3.40625q1.078125 -0.921875 2.609375 -0.921875q1.71875 0 2.796875 1.125q1.09375 1.109375 1.09375 3.09375q0 1.59375 -0.484375 2.515625q-0.484375 0.921875 -1.40625 1.4375q-0.90625 0.5 -2.0 0.5q-1.734375 0 -2.8125 -1.109375q-1.078125 -1.125 -1.078125 -3.234375zm1.453125 0q0 1.59375 0.6875 2.390625q0.703125 0.796875 1.75 0.796875q1.046875 0 1.734375 -0.796875q0.703125 -0.796875 0.703125 -2.4375q0 -1.53125 -0.703125 -2.328125q-0.6875 -0.796875 -1.734375 -0.796875q-1.046875 0 -1.75 0.796875q-0.6875 0.78125 -0.6875 2.375zm7.9609375 4.15625l0 -8.296875l1.265625 0l0 1.25q0.484375 -0.875 0.890625 -1.15625q0.40625 -0.28125 0.90625 -0.28125q0.703125 0 1.4375 0.453125l-0.484375 1.296875q-0.515625 -0.296875 -1.03125 -0.296875q-0.453125 0 -0.828125 0.28125q-0.359375 0.265625 -0.515625 0.765625q-0.234375 0.75 -0.234375 1.640625l0 4.34375l-1.40625 0zm5.34375 0l0 -11.453125l1.40625 0l0 4.109375q0.984375 -1.140625 2.484375 -1.140625q0.921875 0 1.59375 0.359375q0.6875 0.359375 0.96875 1.0q0.296875 0.640625 0.296875 1.859375l0 5.265625l-1.40625 0l0 -5.265625q0 -1.046875 -0.453125 -1.53125q-0.453125 -0.484375 -1.296875 -0.484375q-0.625 0 -1.171875 0.328125q-0.546875 0.328125 -0.78125 0.890625q-0.234375 0.546875 -0.234375 1.515625l0 4.546875l-1.40625 0zm8.3671875 -4.15625q0 -2.296875 1.28125 -3.40625q1.078125 -0.921875 2.609375 -0.921875q1.71875 0 2.796875 1.125q1.09375 1.109375 1.09375 3.09375q0 1.59375 -0.484375 2.515625q-0.484375 0.921875 -1.40625 1.4375q-0.90625 0.5 -2.0 0.5q-1.734375 0 -2.8125 -1.109375q-1.078125 -1.125 -1.078125 -3.234375zm1.453125 0q0 1.59375 0.6875 2.390625q0.703125 0.796875 1.75 0.796875q1.046875 0 1.734375 -0.796875q0.703125 -0.796875 0.703125 -2.4375q0 -1.53125 -0.703125 -2.328125q-0.6875 -0.796875 -1.734375 -0.796875q-1.046875 0 -1.75 0.796875q-0.6875 0.78125 -0.6875 2.375zm7.4453125 0q0 -2.296875 1.28125 -3.40625q1.078125 -0.921875 2.609375 -0.921875q1.71875 0 2.796875 1.125q1.09375 1.109375 1.09375 3.09375q0 1.59375 -0.484375 2.515625q-0.484375 0.921875 -1.40625 1.4375q-0.90625 0.5 -2.0 0.5q-1.734375 0 -2.8125 -1.109375q-1.078125 -1.125 -1.078125 -3.234375zm1.453125 0q0 1.59375 0.6875 2.390625q0.703125 0.796875 1.75 0.796875q1.046875 0 1.734375 -0.796875q0.703125 -0.796875 0.703125 -2.4375q0 -1.53125 -0.703125 -2.328125q-0.6875 -0.796875 -1.734375 -0.796875q-1.046875 0 -1.75 0.796875q-0.6875 0.78125 -0.6875 2.375zm13.3515625 4.15625l0 -1.046875q-0.78125 1.234375 -2.3125 1.234375q-1.0 0 -1.828125 -0.546875q-0.828125 -0.546875 -1.296875 -1.53125q-0.453125 -0.984375 -0.453125 -2.25q0 -1.25 0.40625 -2.25q0.421875 -1.015625 1.25 -1.546875q0.828125 -0.546875 1.859375 -0.546875q0.75 0 1.328125 0.3125q0.59375 0.3125 0.953125 0.828125l0 -4.109375l1.40625 0l0 11.453125l-1.3125 0zm-4.4375 -4.140625q0 1.59375 0.671875 2.390625q0.671875 0.78125 1.578125 0.78125q0.921875 0 1.5625 -0.75q0.65625 -0.765625 0.65625 -2.3125q0 -1.703125 -0.65625 -2.5q-0.65625 -0.796875 -1.625 -0.796875q-0.9375 0 -1.5625 0.765625q-0.625 0.765625 -0.625 2.421875z" fill-rule="nonzero"/><path fill="#cfe2f3" d="m77.509186 106.75142l27.275589 0l0 -14.754044l54.551178 0l0 14.754044l27.275589 0l-54.551178 17.560913z" fill-rule="evenodd"/><path stroke="#000000" stroke-width="1.0" stroke-linejoin="round" stroke-linecap="butt" d="m77.509186 106.75142l27.275589 0l0 -14.754044l54.551178 0l0 14.754044l27.275589 0l-54.551178 17.560913z" fill-rule="evenodd"/><path fill="#000000" d="m114.83165 108.56462l0 -9.546875l4.234375 0q1.265625 0 1.921875 0.265625q0.671875 0.25 1.0625 0.90625q0.40625 0.65625 0.40625 1.4375q0 1.015625 -0.65625 1.71875q-0.65625 0.6875 -2.03125 0.875q0.5 0.25 0.765625 0.484375q0.546875 0.5 1.046875 1.265625l1.65625 2.59375l-1.578125 0l-1.265625 -1.984375q-0.5625 -0.859375 -0.921875 -1.3125q-0.34375 -0.453125 -0.640625 -0.640625q-0.28125 -0.1875 -0.5625 -0.25q-0.21875 -0.046875 -0.703125 -0.046875l-1.46875 0l0 4.234375l-1.265625 0zm1.265625 -5.328125l2.71875 0q0.859375 0 1.34375 -0.171875q0.484375 -0.1875 0.734375 -0.578125q0.265625 -0.390625 0.265625 -0.859375q0 -0.671875 -0.5 -1.109375q-0.484375 -0.4375 -1.546875 -0.4375l-3.015625 0l0 3.15625zm12.718903 5.328125l0 -1.015625q-0.8125 1.171875 -2.1875 1.171875q-0.609375 0 -1.140625 -0.234375q-0.53125 -0.234375 -0.796875 -0.578125q-0.25 -0.359375 -0.359375 -0.875q-0.0625 -0.34375 -0.0625 -1.09375l0 -4.28125l1.171875 0l0 3.828125q0 0.921875 0.0625 1.234375q0.109375 0.46875 0.46875 0.734375q0.359375 0.25 0.890625 0.25q0.515625 0 0.984375 -0.265625q0.46875 -0.265625 0.65625 -0.734375q0.1875 -0.46875 0.1875 -1.34375l0 -3.703125l1.171875 0l0 6.90625l-1.046875 0zm2.8656006 0l0 -9.546875l1.171875 0l0 9.546875l-1.171875 0zm7.71109 -2.21875l1.203125 0.140625q-0.28125 1.0625 -1.0625 1.65625q-0.765625 0.578125 -1.96875 0.578125q-1.515625 0 -2.40625 -0.9375q-0.890625 -0.9375 -0.890625 -2.609375q0 -1.75 0.890625 -2.703125q0.90625 -0.96875 2.34375 -0.96875q1.390625 0 2.265625 0.9375q0.875 0.9375 0.875 2.65625q0 0.109375 0 0.3125l-5.15625 0q0.0625 1.140625 0.640625 1.75q0.578125 0.59375 1.4375 0.59375q0.65625 0 1.109375 -0.328125q0.453125 -0.34375 0.71875 -1.078125zm-3.84375 -1.90625l3.859375 0q-0.078125 -0.859375 -0.4375 -1.296875q-0.5625 -0.6875 -1.453125 -0.6875q-0.8125 0 -1.359375 0.546875q-0.546875 0.53125 -0.609375 1.4375zm6.0531006 2.0625l1.15625 -0.1875q0.109375 0.703125 0.546875 1.078125q0.453125 0.359375 1.25 0.359375q0.8125 0 1.203125 -0.328125q0.390625 -0.328125 0.390625 -0.765625q0 -0.390625 -0.359375 -0.625q-0.234375 -0.15625 -1.1875 -0.390625q-1.296875 -0.328125 -1.796875 -0.5625q-0.484375 -0.25 -0.75 -0.65625q-0.25 -0.421875 -0.25 -0.9375q0 -0.453125 0.203125 -0.84375q0.21875 -0.40625 0.578125 -0.671875q0.28125 -0.1875 0.75 -0.328125q0.46875 -0.140625 1.015625 -0.140625q0.8125 0 1.421875 0.234375q0.609375 0.234375 0.90625 0.640625q0.296875 0.390625 0.40625 1.0625l-1.140625 0.15625q-0.078125 -0.53125 -0.453125 -0.828125q-0.375 -0.3125 -1.0625 -0.3125q-0.8125 0 -1.15625 0.265625q-0.34375 0.265625 -0.34375 0.625q0 0.234375 0.140625 0.421875q0.15625 0.1875 0.453125 0.3125q0.171875 0.0625 1.03125 0.296875q1.25 0.328125 1.734375 0.546875q0.5 0.203125 0.78125 0.609375q0.28125 0.40625 0.28125 1.0q0 0.59375 -0.34375 1.109375q-0.34375 0.515625 -1.0 0.796875q-0.640625 0.28125 -1.453125 0.28125q-1.34375 0 -2.046875 -0.5625q-0.703125 -0.5625 -0.90625 -1.65625z" fill-rule="nonzero"/></g></svg>