<svg version="1.1" viewBox="0.0 0.0 308.2834645669291 202.62992125984252" fill="none" stroke="none" stroke-linecap="square" stroke-miterlimit="10" xmlns:xlink="http://www.w3.org/1999/xlink" xmlns="http://www.w3.org/2000/svg"><clipPath id="p.0"><path d="m0 0l308.28348 0l0 202.62993l-308.28348 0l0 -202.62993z" clip-rule="nonzero"/></clipPath><g clip-path="url(#p.0)"><path fill="#000000" fill-opacity="0.0" d="m0 0l308.28348 0l0 202.62993l-308.28348 0z" fill-rule="evenodd"/><path fill="#ff0000" d="m272.6378 27.585302l0 0c0 -3.7746716 3.2574158 -6.834646 7.2756042 -6.834646l0 0c1.929596 0 3.780182 0.7200775 5.144623 2.0018215c1.3644409 1.281744 2.130951 3.0201626 2.130951 4.8328247l0 0c0 3.7746696 -3.2573853 6.834646 -7.2755737 6.834646l0 0c-4.0181885 0 -7.2756042 -3.0599766 -7.2756042 -6.834646z" fill-rule="evenodd"/><path fill="#000000" fill-opacity="0.0" d="m64.120735 172.20735l216.47244 -144.69292" fill-rule="evenodd"/><path stroke="#ffffff" stroke-width="4.0" stroke-linejoin="round" stroke-linecap="butt" d="m76.72445 163.78287l183.91562 -122.93152" fill-rule="evenodd"/><path fill="#ffffff" stroke="#ffffff" stroke-width="4.0" stroke-linecap="butt" d="m65.78349 171.09595c-2.0194473 -3.0212708 -1.2073212 -7.1075745 1.813942 -9.127029c3.0212631 -2.0194397 7.107567 -1.2073212 9.127014 1.8139496c2.019455 3.0212555 1.2073212 7.107559 -1.813942 9.127014c-3.0212631 2.019455 -7.107567 1.2073212 -9.127014 -1.8139343z" fill-rule="nonzero"/><path fill="#ffffff" stroke="#ffffff" stroke-width="4.0" stroke-linecap="butt" d="m264.31155 46.344215l11.420044 -15.580236l-18.763031 4.5945034z" fill-rule="evenodd"/><path fill="#000000" fill-opacity="0.0" d="m75.69554 171.06299l219.937 -1.1653442" fill-rule="evenodd"/><path stroke="#ffffff" stroke-width="1.0" stroke-linejoin="round" stroke-linecap="butt" stroke-dasharray="1.0,3.0" d="m75.69554 171.06299l219.937 -1.1653442" fill-rule="evenodd"/><path fill="#000000" fill-opacity="0.0" d="m-2.9133859 164.20735l103.02362 0l0 44.0l-103.02362 0z" fill-rule="evenodd"/><path fill="#ffffff" d="m6.586614 186.08298l1.390625 -0.21875q0.10937548 0.84375 0.6406255 1.296875q0.546875 0.4375 1.5 0.4375q0.96875 0 1.4375 -0.390625q0.46875 -0.40625 0.46875 -0.9375q0 -0.46875 -0.40625 -0.75q-0.296875 -0.1875 -1.4375 -0.46875q-1.546875 -0.390625 -2.15625 -0.671875q-0.5937505 -0.296875 -0.9062505 -0.796875q-0.296875 -0.5 -0.296875 -1.109375q0 -0.5625 0.25 -1.03125q0.25 -0.46875 0.6875 -0.78125q0.32812548 -0.25 0.8906255 -0.40625q0.578125 -0.171875 1.21875 -0.171875q0.984375 0 1.71875 0.28125q0.734375 0.28125 1.078125 0.765625q0.359375 0.46875 0.5 1.28125l-1.375 0.1875q-0.09375 -0.640625 -0.546875 -1.0q-0.453125 -0.359375 -1.265625 -0.359375q-0.96875 0 -1.390625 0.328125q-0.40625 0.3125 -0.40625 0.734375q0 0.28125 0.171875 0.5q0.171875 0.21875 0.53125 0.375q0.21875 0.078125 1.25 0.359375q1.484375 0.390625 2.078125 0.65625q0.59375 0.25 0.921875 0.734375q0.34375 0.484375 0.34375 1.203125q0 0.703125 -0.421875 1.328125q-0.40625 0.609375 -1.1875 0.953125q-0.765625 0.34375 -1.734375 0.34375q-1.625 0 -2.4687505 -0.671875q-0.84375 -0.671875 -1.078125 -2.0zm11.625 1.21875l0.203125 1.25q-0.59375 0.125 -1.0625 0.125q-0.765625 0 -1.1875 -0.234375q-0.421875 -0.25 -0.59375 -0.640625q-0.171875 -0.40625 -0.171875 -1.671875l0 -4.765625l-1.03125 0l0 -1.09375l1.03125 0l0 -2.0625l1.40625 -0.84375l0 2.90625l1.40625 0l0 1.09375l-1.40625 0l0 4.84375q0 0.609375 0.0625 0.78125q0.078125 0.171875 0.25 0.28125q0.171875 0.09375 0.484375 0.09375q0.234375 0 0.609375 -0.0625zm6.7890625 0.234375q-0.78125 0.671875 -1.5 0.953125q-0.71875 0.265625 -1.546875 0.265625q-1.375 0 -2.109375 -0.671875q-0.734375 -0.671875 -0.734375 -1.703125q0 -0.609375 0.28125 -1.109375q0.28125 -0.515625 0.71875 -0.8125q0.453125 -0.3125 1.015625 -0.46875q0.421875 -0.109375 1.25 -0.203125q1.703125 -0.203125 2.515625 -0.484375q0 -0.296875 0 -0.375q0 -0.859375 -0.390625 -1.203125q-0.546875 -0.484375 -1.609375 -0.484375q-0.984375 0 -1.46875 0.359375q-0.46875 0.34375 -0.6875 1.21875l-1.375 -0.1875q0.1875 -0.875 0.609375 -1.421875q0.4375 -0.546875 1.25 -0.828125q0.8125 -0.296875 1.875 -0.296875q1.0625 0 1.71875 0.25q0.671875 0.25 0.984375 0.625q0.3125 0.375 0.4375 0.953125q0.078125 0.359375 0.078125 1.296875l0 1.875q0 1.96875 0.078125 2.484375q0.09375 0.515625 0.359375 1.0l-1.46875 0q-0.21875 -0.4375 -0.28125 -1.03125zm-0.109375 -3.140625q-0.765625 0.3125 -2.296875 0.53125q-0.875 0.125 -1.234375 0.28125q-0.359375 0.15625 -0.5625 0.46875q-0.1875 0.296875 -0.1875 0.65625q0 0.5625 0.421875 0.9375q0.4375 0.375 1.25 0.375q0.8125 0 1.4375 -0.34375q0.640625 -0.359375 0.9375 -0.984375q0.234375 -0.46875 0.234375 -1.40625l0 -0.515625zm3.5859375 4.171875l0 -8.296875l1.265625 0l0 1.25q0.484375 -0.875 0.890625 -1.15625q0.40625 -0.28125 0.90625 -0.28125q0.7031231 0 1.4374981 0.453125l-0.484375 1.296875q-0.5156231 -0.296875 -1.0312481 -0.296875q-0.453125 0 -0.828125 0.28125q-0.359375 0.265625 -0.515625 0.765625q-0.234375 0.75 -0.234375 1.640625l0 4.34375l-1.40625 0zm8.406248 -1.265625l0.203125 1.25q-0.59375 0.125 -1.0625 0.125q-0.765625 0 -1.1875 -0.234375q-0.421875 -0.25 -0.59375 -0.640625q-0.171875 -0.40625 -0.171875 -1.671875l0 -4.765625l-1.03125 0l0 -1.09375l1.03125 0l0 -2.0625l1.40625 -0.84375l0 2.90625l1.40625 0l0 1.09375l-1.40625 0l0 4.84375q0 0.609375 0.0625 0.78125q0.078125 0.171875 0.25 0.28125q0.171875 0.09375 0.484375 0.09375q0.234375 0 0.609375 -0.0625zm8.515625 4.640625q-1.171875 -1.46875 -1.984375 -3.4375q-0.796875 -1.984375 -0.796875 -4.09375q0 -1.859375 0.609375 -3.5625q0.703125 -1.96875 2.171875 -3.9375l1.0 0q-0.9375 1.625 -1.25 2.328125q-0.46875 1.078125 -0.75 2.25q-0.328125 1.453125 -0.328125 2.9375q0 3.75 2.328125 7.515625l-1.0 0zm1.703125 -3.375l3.03125 -4.3125l-2.8125 -3.984375l1.765625 0l1.265625 1.9375q0.359375 0.5625 0.578125 0.9375q0.34375 -0.515625 0.640625 -0.921875l1.390625 -1.953125l1.6875 0l-2.875 3.90625l3.09375 4.390625l-1.734375 0l-1.703125 -2.578125l-0.453125 -0.703125l-2.171875 3.28125l-1.703125 0zm9.296875 0l0 -1.609375l1.609375 0l0 1.609375q0 0.890625 -0.3125 1.421875q-0.3125 0.546875 -1.0 0.84375l-0.390625 -0.59375q0.453125 -0.203125 0.65625 -0.578125q0.21875 -0.375 0.234375 -1.09375l-0.796875 0zm4.0234375 3.203125l-0.15625 -1.328125q0.453125 0.125 0.796875 0.125q0.46875 0 0.75 -0.15625q0.28125 -0.15625 0.46875 -0.4375q0.125 -0.203125 0.421875 -1.046875q0.046875 -0.109375 0.125 -0.34375l-3.140625 -8.3125l1.515625 0l1.71875 4.796875q0.34375 0.921875 0.609375 1.921875q0.234375 -0.96875 0.5781288 -1.890625l1.765625 -4.828125l1.40625 0l-3.15625 8.4375q-0.5000038 1.375 -0.7812538 1.890625q-0.375 0.6875 -0.859375 1.015625q-0.484375 0.328125 -1.15625 0.328125q-0.40625 0 -0.90625 -0.171875zm8.984379 0.171875l-1.015625 0q2.34375 -3.765625 2.34375 -7.515625q0 -1.46875 -0.34375 -2.921875q-0.265625 -1.171875 -0.734375 -2.25q-0.3125 -0.703125 -1.265625 -2.34375l1.015625 0q1.46875 1.96875 2.171875 3.9375q0.59375 1.703125 0.59375 3.5625q0 2.109375 -0.8125 4.09375q-0.796875 1.96875 -1.953125 3.4375z" fill-rule="nonzero"/><path fill="#000000" fill-opacity="0.0" d="m131.25722 131.69292l0 0c8.106842 0 15.870804 4.1520996 21.533966 11.51619c5.663162 7.3640747 8.7464905 17.31723 8.551849 27.605835l-30.085815 -0.91729736z" fill-rule="evenodd"/><path fill="#000000" fill-opacity="0.0" d="m131.25722 131.69292l0 0c8.106842 0 15.870804 4.1520996 21.533966 11.51619c5.663162 7.3640747 8.7464905 17.31723 8.551849 27.605835" fill-rule="evenodd"/><path stroke="#ffffff" stroke-width="1.0" stroke-linejoin="round" stroke-linecap="butt" stroke-dasharray="1.0,3.0" d="m131.25722 131.69292l0 0c8.106842 0 15.870804 4.1520996 21.533966 11.51619c5.663162 7.3640747 8.7464905 17.31723 8.551849 27.605835" fill-rule="evenodd"/><path fill="#000000" fill-opacity="0.0" d="m152.38583 123.73491l69.44881 0l0 44.0l-69.44881 0z" fill-rule="evenodd"/><path fill="#ffffff" d="m167.85458 147.06366q-0.78125 0.671875 -1.5 0.953125q-0.71875 0.265625 -1.546875 0.265625q-1.375 0 -2.109375 -0.671875q-0.734375 -0.671875 -0.734375 -1.703125q0 -0.609375 0.28125 -1.109375q0.28125 -0.515625 0.71875 -0.8125q0.453125 -0.3125 1.015625 -0.46875q0.421875 -0.109375 1.25 -0.203125q1.703125 -0.203125 2.515625 -0.484375q0 -0.296875 0 -0.375q0 -0.859375 -0.390625 -1.203125q-0.546875 -0.484375 -1.609375 -0.484375q-0.984375 0 -1.46875 0.359375q-0.46875 0.34375 -0.6875 1.21875l-1.375 -0.1875q0.1875 -0.875 0.609375 -1.421875q0.4375 -0.546875 1.25 -0.828125q0.8125 -0.296875 1.875 -0.296875q1.0625 0 1.71875 0.25q0.671875 0.25 0.984375 0.625q0.3125 0.375 0.4375 0.953125q0.078125 0.359375 0.078125 1.296875l0 1.875q0 1.96875 0.078125 2.484375q0.09375 0.515625 0.359375 1.0l-1.46875 0q-0.21875 -0.4375 -0.28125 -1.03125zm-0.109375 -3.140625q-0.765625 0.3125 -2.296875 0.53125q-0.875 0.125 -1.234375 0.28125q-0.359375 0.15625 -0.5625 0.46875q-0.1875 0.296875 -0.1875 0.65625q0 0.5625 0.421875 0.9375q0.4375 0.375 1.25 0.375q0.8125 0 1.4375 -0.34375q0.640625 -0.359375 0.9375 -0.984375q0.234375 -0.46875 0.234375 -1.40625l0 -0.515625zm3.6015625 4.171875l0 -8.296875l1.265625 0l0 1.171875q0.90625 -1.359375 2.640625 -1.359375q0.75 0 1.375 0.265625q0.625 0.265625 0.9375 0.703125q0.3125 0.4375 0.4375 1.046875q0.078125 0.390625 0.078125 1.359375l0 5.109375l-1.40625 0l0 -5.046875q0 -0.859375 -0.171875 -1.28125q-0.15625 -0.4375 -0.578125 -0.6875q-0.40625 -0.25 -0.96875 -0.25q-0.90625 0 -1.5625 0.578125q-0.640625 0.5625 -0.640625 2.15625l0 4.53125l-1.40625 0zm8.6328125 0.6875l1.375 0.203125q0.078125 0.640625 0.46875 0.921875q0.53125 0.390625 1.4375 0.390625q0.96875 0 1.5 -0.390625q0.53125 -0.390625 0.71875 -1.09375q0.109375 -0.421875 0.109375 -1.8125q-0.921875 1.09375 -2.296875 1.09375q-1.71875 0 -2.65625 -1.234375q-0.9375 -1.234375 -0.9375 -2.96875q0 -1.1875 0.421875 -2.1875q0.4375 -1.0 1.25 -1.546875q0.828125 -0.546875 1.921875 -0.546875q1.46875 0 2.421875 1.1875l0 -1.0l1.296875 0l0 7.171875q0 1.9375 -0.390625 2.75q-0.390625 0.8125 -1.25 1.28125q-0.859375 0.46875 -2.109375 0.46875q-1.484375 0 -2.40625 -0.671875q-0.90625 -0.671875 -0.875 -2.015625zm1.171875 -4.984375q0 1.625 0.640625 2.375q0.65625 0.75 1.625 0.75q0.96875 0 1.625 -0.734375q0.65625 -0.75 0.65625 -2.34375q0 -1.53125 -0.671875 -2.296875q-0.671875 -0.78125 -1.625 -0.78125q-0.9375 0 -1.59375 0.765625q-0.65625 0.765625 -0.65625 2.265625zm7.9609375 4.296875l0 -11.453125l1.40625 0l0 11.453125l-1.40625 0zm9.2578125 -2.671875l1.453125 0.171875q-0.34375 1.28125 -1.28125 1.984375q-0.921875 0.703125 -2.359375 0.703125q-1.828125 0 -2.890625 -1.125q-1.0625 -1.125 -1.0625 -3.140625q0 -2.09375 1.078125 -3.25q1.078125 -1.15625 2.796875 -1.15625q1.65625 0 2.703125 1.140625q1.0625 1.125 1.0625 3.171875q0 0.125 0 0.375l-6.1875 0q0.078125 1.375 0.765625 2.109375q0.703125 0.71875 1.734375 0.71875q0.78125 0 1.328125 -0.40625q0.546875 -0.40625 0.859375 -1.296875zm-4.609375 -2.28125l4.625 0q-0.09375 -1.046875 -0.53125 -1.5625q-0.671875 -0.8125 -1.734375 -0.8125q-0.96875 0 -1.640625 0.65625q-0.65625 0.640625 -0.71875 1.71875z" fill-rule="nonzero"/><path fill="#000000" fill-opacity="0.0" d="m113.25447 102.03452l75.40158 -53.291336l25.385818 35.90551l-75.401566 53.291336z" fill-rule="evenodd"/><path fill="#ffffff" d="m139.92422 113.01523l-0.60435486 -0.854805q0.07461548 1.4588165 -1.1758423 2.342598q-0.81663513 0.5771713 -1.808609 0.6085968q-0.99198914 0.031417847 -1.9430542 -0.50180817q-0.938324 -0.54224396 -1.6689758 -1.5756607q-0.72161865 -1.020668 -0.9671631 -2.0716705q-0.24180603 -1.0727844 0.12776184 -1.9845276q0.3605652 -0.92450714 1.202713 -1.5197067q0.61247253 -0.4328766 1.2649841 -0.51138306q0.6652832 -0.087524414 1.256424 0.12608337l-2.372345 -3.3554382l1.1483765 -0.8116379l6.611908 9.35183l-1.0718231 0.7575302zm-6.0141754 -0.81977844q0.92007446 1.3013458 1.9287872 1.5642395q0.9996948 0.2501297 1.7397614 -0.27292633q0.7528229 -0.532074 0.8430023 -1.5142136q0.09391785 -1.0039215 -0.7991028 -2.2669983q-0.98321533 -1.3906479 -1.9791565 -1.6625595q-0.9959564 -0.27191162 -1.7870636 0.28722382q-0.7655792 0.5410919 -0.8339844 1.5269699q-0.06838989 0.9858856 0.88775635 2.3382645zm3.2087097 -9.251549l-0.92910767 -1.3141098l1.1483917 -0.8116379l0.9290924 1.3141098l-1.1483765 0.8116379zm5.6828003 8.037727l-4.789795 -6.774658l1.1483765 -0.8116379l4.78981 6.7746506l-1.1483917 0.8116455zm1.0092773 -3.7555618l1.0093384 -0.9812317q0.576416 0.62581635 1.2718353 0.6891937q0.6991577 0.04158783 1.4775085 -0.50852203q0.7911072 -0.5591278 0.9483948 -1.1486282q0.14826965 -0.6022644 -0.158432 -1.0360489q-0.27059937 -0.38274384 -0.76472473 -0.37792206q-0.3506775 0.018249512 -1.4445038 0.44692993q-1.488739 0.5738449 -2.1487274 0.69589996q-0.65626526 0.10028839 -1.200119 -0.12761688q-0.53108215 -0.23691559 -0.88287354 -0.73448944q-0.32473755 -0.45929718 -0.39118958 -0.9863434q-0.06645203 -0.5270386 0.1104126 -1.0347137q0.12364197 -0.39351654 0.4927826 -0.8457489q0.3728943 -0.47401428 0.89604187 -0.84376526q0.8038635 -0.56814575 1.5659485 -0.762352q0.7620697 -0.19420624 1.3224182 0.00289917q0.5640869 0.17533112 1.1479797 0.7575989l-1.0146179 0.94670105q-0.44639587 -0.46897888 -1.0238953 -0.50089264q-0.5774994 -0.031913757 -1.2410126 0.4370346q-0.7911072 0.5591278 -0.9461975 1.0705414q-0.15133667 0.48963928 0.09220886 0.8341141q0.16236877 0.2296524 0.42900085 0.30906677q0.26664734 0.07941437 0.6503296 -4.196167E-4q0.22373962 -0.062461853 1.2282562 -0.42801666q1.4376831 -0.53777313 2.0758972 -0.6635742q0.62919617 -0.13855743 1.1767883 0.06756592q0.5603485 0.19710541 0.97528076 0.78398895q0.4059143 0.57411957 0.4222107 1.3279495q0.020050049 0.7320404 -0.41949463 1.4636383q-0.42678833 0.7225723 -1.2178955 1.2817001q-1.3270264 0.9378967 -2.4039154 0.8762741q-1.0769043 -0.06162262 -2.0350342 -1.0108109zm10.196884 -5.7143936l0.88749695 0.9034271q-0.41270447 0.44475555 -0.7955017 0.7153015q-0.6252289 0.44189453 -1.1050568 0.49401093q-0.48883057 0.039360046 -0.8547058 -0.18039703q-0.37487793 -0.23252106 -1.1055298 -1.2659378l-2.7512054 -3.8912811l-0.8421478 0.5951996l-0.63142395 -0.89308167l0.8421478 -0.5951996l-1.1906891 -1.6840973l0.6612854 -1.5005875l1.6777954 2.3730469l1.1483765 -0.8116379l0.63142395 0.89308167l-1.1483917 0.8116379l2.7963104 3.9550705q0.35179138 0.49757385 0.50205994 0.6018448q0.1630249 0.09524536 0.3665161 0.085357666q0.19448853 -0.022651672 0.4496765 -0.20301819q0.19140625 -0.13526917 0.4615631 -0.40274048zm5.679428 -3.7270355q-0.2501068 0.9995117 -0.6746979 1.6439972q-0.433609 0.6317291 -1.1098785 1.1096954q-1.1228638 0.793602 -2.110443 0.66885376q-0.98757935 -0.12474823 -1.5829315 -0.9667969q-0.35179138 -0.49757385 -0.4107666 -1.0681686q-0.067993164 -0.58335114 0.117889404 -1.07827q0.18963623 -0.5166931 0.55877686 -0.9689331q0.28137207 -0.33280182 0.90353394 -0.88731384q1.2735443 -1.1488419 1.7746887 -1.847435q-0.17138672 -0.24240875 -0.2164917 -0.30619812q-0.496109 -0.70171356 -1.0135498 -0.7569351q-0.7262268 -0.07987213 -1.5939026 0.53336334q-0.8038635 0.56814575 -0.99194336 1.1411514q-0.18435669 0.5512314 0.14215088 1.3919525l-1.2311096 0.6405029q-0.35202026 -0.82268524 -0.32321167 -1.5127182q0.04156494 -0.6990509 0.54270935 -1.397644q0.4921112 -0.7113571 1.359787 -1.3245926q0.8676605 -0.6132355 1.5478973 -0.7878723q0.69299316 -0.18364716 1.1646881 -0.05781555q0.4716797 0.12583923 0.9075165 0.5257492q0.2712555 0.24835205 0.81248474 1.0138474l1.0824432 1.5309982q1.1365509 1.607544 1.4980316 1.9834747q0.3742218 0.36691284 0.8707733 0.6091156l-1.1994171 0.84770966q-0.43121338 -0.23097992 -0.82502747 -0.679718zm-1.9024048 -2.5012894q-0.44482422 0.697052 -1.5690002 1.7594528q-0.64237976 0.6070862 -0.84565735 0.9420929q-0.20327759 0.33499908 -0.18873596 0.70739746q0.01826477 0.3506317 0.22573853 0.6440735q0.3247223 0.45929718 0.8857269 0.5220032q0.573761 0.05368805 1.2372742 -0.41526031q0.6635132 -0.46894073 0.9754486 -1.1103516q0.3156891 -0.66319275 0.1973114 -1.3448715q-0.079208374 -0.51802063 -0.6204376 -1.2835159l-0.29766846 -0.4210205zm5.3495636 1.3277664l-4.789795 -6.774658l1.0335388 -0.7304764l0.67652893 0.95687866q-0.044708252 -1.6330338 1.3716431 -2.6340485q0.6124573 -0.4328766 1.2761993 -0.57671356q0.66374207 -0.14383698 1.1715088 0.03302765q0.5077667 0.17687225 0.9616394 0.6022949q0.28930664 0.27387238 0.8485718 1.0648804l2.949646 4.1719666l-1.1483917 0.8116379l-2.913559 -4.120926q-0.49612427 -0.70170593 -0.8800354 -0.94698334q-0.38015747 -0.2670517 -0.8690033 -0.22769165q-0.47607422 0.030342102 -0.9354248 0.35499573q-0.7400818 0.52305603 -0.9422302 1.3738785q-0.1984253 0.82904816 0.72164917 2.130394l2.6159058 3.6999054l-1.1483917 0.8116379zm9.922638 -10.744041l1.243866 -0.64951324q0.62945557 1.2962723 0.33291626 2.500801q-0.2837677 1.1955032 -1.3938599 1.9800873q-1.3908234 0.98298645 -2.8861694 0.68136597q-1.4916229 -0.32339478 -2.69133 -2.0202484q-0.7757416 -1.0972137 -0.9957733 -2.1662598q-0.21627808 -1.0908127 0.23513794 -2.0221329q0.46417236 -0.94033813 1.3318329 -1.5535812q1.1101074 -0.78458405 2.2088013 -0.7192154q1.0896606 0.052604675 2.0117035 0.95075226l-0.9928436 0.95043945q-0.6439514 -0.55895233 -1.2958221 -0.6148453q-0.6390991 -0.06491089 -1.2132874 0.34091187q-0.8676605 0.6132355 -0.9743347 1.6261749q-0.10293579 0.99116516 0.85321045 2.343544q0.96517944 1.3651352 1.9303284 1.6205444q0.956131 0.2426529 1.7982788 -0.3525467q0.67626953 -0.4779663 0.83421326 -1.2018661q0.16168213 -0.74568176 -0.3368683 -1.6944122zm6.9664307 -4.464432l1.2858734 -0.698349q0.45895386 1.2445831 0.09928894 2.3597946q-0.34692383 1.1062012 -1.520813 1.9358749q-1.4929047 1.05513 -3.0100403 0.7497711q-1.5171204 -0.3053589 -2.6807556 -1.9511795q-1.208725 -1.70961 -0.99580383 -3.2759857q0.21292114 -1.5663681 1.6165009 -2.5583725q1.3525391 -0.955925 2.8659363 -0.6287918q1.5171356 0.3053589 2.6987915 1.9766998q0.07215881 0.10206604 0.2164917 0.30619812l-5.052887 3.5712051q0.8575897 1.0776443 1.8429871 1.2804794q0.9891205 0.18106079 1.8312683 -0.4141388q0.6379852 -0.45091248 0.8500519 -1.098259q0.21206665 -0.6473541 -0.04689026 -1.5549469zm-5.0811157 0.7976608l3.7769012 -2.6693878q-0.68092346 -0.8006973 -1.3358765 -0.96920776q-1.0177155 -0.27565002 -1.8853912 0.33758545q-0.7911072 0.5591278 -0.96092224 1.4827652q-0.16607666 0.90185547 0.4052887 1.8182449z" fill-rule="nonzero"/><path fill="#000000" fill-opacity="0.0" d="m161.3517 -10.3359585l187.65355 0l0 21.889763l-187.65355 0z" fill-rule="evenodd"/><path fill="#ffffff" d="m170.88295 9.867792q0 -2.2968745 1.28125 -3.4062495q1.078125 -0.921875 2.609375 -0.921875q1.71875 0 2.796875 1.125q1.09375 1.109375 1.09375 3.0937495q0 1.59375 -0.484375 2.515625q-0.484375 0.921875 -1.40625 1.4375q-0.90625 0.5 -2.0 0.5q-1.734375 0 -2.8125 -1.109375q-1.078125 -1.125 -1.078125 -3.234375zm1.453125 0q0 1.59375 0.6875 2.390625q0.703125 0.796875 1.75 0.796875q1.046875 0 1.734375 -0.796875q0.703125 -0.796875 0.703125 -2.4375q0 -1.53125 -0.703125 -2.3281245q-0.6875 -0.796875 -1.734375 -0.796875q-1.046875 0 -1.75 0.796875q-0.6875 0.7812495 -0.6875 2.3749995zm8.3046875 4.15625l0 -7.2031245l-1.234375 0l0 -1.09375l1.234375 0l0 -0.890625q0 -0.828125 0.15625 -1.234375q0.203125 -0.546875 0.703125 -0.890625q0.515625 -0.34375 1.4375 -0.34375q0.59375 0 1.3125 0.140625l-0.203125 1.234375q-0.4375 -0.078125 -0.828125 -0.078125q-0.640625 0 -0.90625 0.28125q-0.265625 0.265625 -0.265625 1.015625l0 0.765625l1.609375 0l0 1.09375l-1.609375 0l0 7.2031245l-1.40625 0zm4.4453125 0l0 -7.2031245l-1.234375 0l0 -1.09375l1.234375 0l0 -0.890625q0 -0.828125 0.15625 -1.234375q0.203125 -0.546875 0.703125 -0.890625q0.515625 -0.34375 1.4375 -0.34375q0.59375 0 1.3125 0.140625l-0.203125 1.234375q-0.4375 -0.078125 -0.828125 -0.078125q-0.640625 0 -0.90625 0.28125q-0.265625 0.265625 -0.265625 1.015625l0 0.765625l1.609375 0l0 1.09375l-1.609375 0l0 7.2031245l-1.40625 0zm3.5546875 -2.484375l1.390625 -0.21875q0.109375 0.84375 0.640625 1.296875q0.546875 0.4375 1.5 0.4375q0.96875 0 1.4375 -0.390625q0.46875 -0.40625 0.46875 -0.9375q0 -0.46875 -0.40625 -0.75q-0.296875 -0.1875 -1.4375 -0.46875q-1.546875 -0.390625 -2.15625 -0.671875q-0.59375 -0.296875 -0.90625 -0.796875q-0.296875 -0.5 -0.296875 -1.1093745q0 -0.5625 0.25 -1.03125q0.25 -0.46875 0.6875 -0.78125q0.328125 -0.25 0.890625 -0.40625q0.578125 -0.171875 1.21875 -0.171875q0.984375 0 1.71875 0.28125q0.734375 0.28125 1.078125 0.765625q0.359375 0.46875 0.5 1.28125l-1.375 0.18749952q-0.09375 -0.6406245 -0.546875 -0.9999995q-0.453125 -0.359375 -1.265625 -0.359375q-0.96875 0 -1.390625 0.328125q-0.40625 0.3125 -0.40625 0.734375q0 0.28124952 0.171875 0.49999952q0.171875 0.21875 0.53125 0.375q0.21875 0.078125 1.25 0.359375q1.484375 0.390625 2.078125 0.65625q0.59375 0.25 0.921875 0.734375q0.34375 0.484375 0.34375 1.203125q0 0.703125 -0.421875 1.328125q-0.40625 0.609375 -1.1875 0.953125q-0.765625 0.34375 -1.734375 0.34375q-1.625 0 -2.46875 -0.671875q-0.84375 -0.671875 -1.078125 -2.0zm14.234375 -0.1875l1.453125 0.171875q-0.34375 1.28125 -1.28125 1.984375q-0.921875 0.703125 -2.359375 0.703125q-1.828125 0 -2.890625 -1.125q-1.0625 -1.125 -1.0625 -3.140625q0 -2.0937495 1.078125 -3.2499995q1.078125 -1.15625 2.796875 -1.15625q1.65625 0 2.703125 1.140625q1.0625 1.125 1.0625 3.1718745q0 0.125 0 0.375l-6.1875 0q0.078125 1.375 0.765625 2.109375q0.703125 0.71875 1.734375 0.71875q0.78125 0 1.328125 -0.40625q0.546875 -0.40625 0.859375 -1.296875zm-4.609375 -2.28125l4.625 0q-0.09375 -1.046875 -0.53125 -1.5624995q-0.671875 -0.8125 -1.734375 -0.8125q-0.96875 0 -1.640625 0.65625q-0.65625 0.640625 -0.71875 1.7187495zm10.8984375 3.6875l0.203125 1.25q-0.59375 0.125 -1.0625 0.125q-0.765625 0 -1.1875 -0.234375q-0.421875 -0.25 -0.59375 -0.640625q-0.171875 -0.40625 -0.171875 -1.671875l0 -4.7656245l-1.03125 0l0 -1.09375l1.03125 0l0 -2.0625l1.40625 -0.84375l0 2.90625l1.40625 0l0 1.09375l-1.40625 0l0 4.8437495q0 0.609375 0.0625 0.78125q0.078125 0.171875 0.25 0.28125q0.171875 0.09375 0.484375 0.09375q0.234375 0 0.609375 -0.0625zm1.5546875 1.265625l0 -11.453125l4.328125 0q1.140625 0 1.734375 0.109375q0.84375 0.140625 1.40625 0.53125q0.578125 0.390625 0.921875 1.109375q0.359375 0.703125 0.359375 1.5625q0 1.453125 -0.9375 2.4687495q-0.921875 1.015625 -3.359375 1.015625l-2.9375 0l0 4.65625l-1.515625 0zm1.515625 -6.015625l2.96875 0q1.46875 0 2.078125 -0.5468745q0.625 -0.546875 0.625 -1.53125q0 -0.71875 -0.375 -1.234375q-0.359375 -0.515625 -0.953125 -0.671875q-0.375 -0.109375 -1.40625 -0.109375l-2.9375 0l0 4.0937495zm8.453125 1.859375q0 -2.2968745 1.28125 -3.4062495q1.078125 -0.921875 2.609375 -0.921875q1.71875 0 2.796875 1.125q1.09375 1.109375 1.09375 3.0937495q0 1.59375 -0.484375 2.515625q-0.484375 0.921875 -1.40625 1.4375q-0.90625 0.5 -2.0 0.5q-1.734375 0 -2.8125 -1.109375q-1.078125 -1.125 -1.078125 -3.234375zm1.453125 0q0 1.59375 0.6875 2.390625q0.703125 0.796875 1.75 0.796875q1.046875 0 1.734375 -0.796875q0.703125 -0.796875 0.703125 -2.4375q0 -1.53125 -0.703125 -2.3281245q-0.6875 -0.796875 -1.734375 -0.796875q-1.046875 0 -1.75 0.796875q-0.6875 0.7812495 -0.6875 2.3749995zm7.9765625 -5.6874995l0 -1.609375l1.40625 0l0 1.609375l-1.40625 0zm0 9.84375l0 -8.296875l1.40625 0l0 8.296875l-1.40625 0zm3.5546875 0l0 -8.296875l1.265625 0l0 1.171875q0.90625 -1.359375 2.640625 -1.359375q0.75 0 1.375 0.265625q0.625 0.265625 0.9375 0.703125q0.3125 0.4375 0.4375 1.046875q0.078125 0.390625 0.078125 1.3593745l0 5.109375l-1.40625 0l0 -5.046875q0 -0.859375 -0.171875 -1.2812495q-0.15625 -0.4375 -0.578125 -0.6875q-0.40625 -0.25 -0.96875 -0.25q-0.90625 0 -1.5625 0.578125q-0.640625 0.5625 -0.640625 2.1562495l0 4.53125l-1.40625 0zm11.9609375 -1.265625l0.203125 1.25q-0.59375 0.125 -1.0625 0.125q-0.765625 0 -1.1875 -0.234375q-0.421875 -0.25 -0.59375 -0.640625q-0.171875 -0.40625 -0.171875 -1.671875l0 -4.7656245l-1.03125 0l0 -1.09375l1.03125 0l0 -2.0625l1.40625 -0.84375l0 2.90625l1.40625 0l0 1.09375l-1.40625 0l0 4.8437495q0 0.609375 0.0625 0.78125q0.078125 0.171875 0.25 0.28125q0.171875 0.09375 0.484375 0.09375q0.234375 0 0.609375 -0.0625zm8.515625 4.640625q-1.171875 -1.46875 -1.984375 -3.4375q-0.796875 -1.984375 -0.796875 -4.09375q0 -1.859375 0.609375 -3.5624995q0.703125 -1.96875 2.171875 -3.9375l1.0 0q-0.9375 1.625 -1.25 2.328125q-0.46875 1.078125 -0.75 2.25q-0.328125 1.4531245 -0.328125 2.9374995q0 3.75 2.328125 7.515625l-1.0 0zm1.703125 -3.375l3.0312653 -4.3125l-2.8125 -3.9843745l1.765625 0l1.265625 1.9375q0.359375 0.5624995 0.578125 0.9374995q0.34375 -0.515625 0.640625 -0.9218745l1.390625 -1.953125l1.6875 0l-2.875 3.9062495l3.09375 4.390625l-1.734375 0l-1.703125 -2.578125l-0.453125 -0.703125l-2.171875 3.28125l-1.7031403 0zm9.29689 0l0 -1.609375l1.609375 0l0 1.609375q0 0.890625 -0.3125 1.421875q-0.3125 0.546875 -1.0 0.84375l-0.390625 -0.59375q0.453125 -0.203125 0.65625 -0.578125q0.21875 -0.375 0.234375 -1.09375l-0.796875 0zm8.46875 3.203125l-0.15625 -1.328125q0.453125 0.125 0.796875 0.125q0.46875 0 0.75 -0.15625q0.28125 -0.15625 0.46875 -0.4375q0.125 -0.203125 0.421875 -1.046875q0.046875 -0.109375 0.125 -0.34375l-3.140625 -8.3125l1.515625 0l1.71875 4.7968745q0.34375 0.921875 0.609375 1.921875q0.234375 -0.96875 0.578125 -1.890625l1.765625 -4.8281245l1.40625 0l-3.15625 8.4375q-0.5 1.375 -0.78125 1.890625q-0.375 0.6875 -0.859375 1.015625q-0.484375 0.328125 -1.15625 0.328125q-0.40625 0 -0.90625 -0.171875zm8.984375 0.171875l-1.015625 0q2.34375 -3.765625 2.34375 -7.515625q0 -1.46875 -0.34375 -2.9218745q-0.265625 -1.171875 -0.734375 -2.25q-0.3125 -0.703125 -1.265625 -2.34375l1.015625 0q1.46875 1.96875 2.171875 3.9375q0.59375 1.7031245 0.59375 3.5624995q0 2.109375 -0.8125 4.09375q-0.796875 1.96875 -1.953125 3.4375z" fill-rule="nonzero"/></g></svg>